<?xml version="1.0" encoding="UTF-8" standalone="no"?>
<!-- Created with Inkscape (http://www.inkscape.org/) -->

<svg
   width="210mm"
   height="297mm"
   viewBox="0 0 210 297"
   version="1.1"
   id="svg1"
   xml:space="preserve"
   inkscape:version="1.3.2 (091e20e, 2023-11-25, custom)"
   sodipodi:docname="logoMNsolar.svg"
   xmlns:inkscape="http://www.inkscape.org/namespaces/inkscape"
   xmlns:sodipodi="http://sodipodi.sourceforge.net/DTD/sodipodi-0.dtd"
   xmlns="http://www.w3.org/2000/svg"
   xmlns:svg="http://www.w3.org/2000/svg"><sodipodi:namedview
     id="namedview1"
     pagecolor="#505050"
     bordercolor="#ffffff"
     borderopacity="1"
     inkscape:showpageshadow="0"
     inkscape:pageopacity="0"
     inkscape:pagecheckerboard="1"
     inkscape:deskcolor="#505050"
     inkscape:document-units="mm"
     inkscape:zoom="0.77147868"
     inkscape:cx="397.28901"
     inkscape:cy="646.80984"
     inkscape:window-width="1920"
     inkscape:window-height="1061"
     inkscape:window-x="-5"
     inkscape:window-y="895"
     inkscape:window-maximized="1"
     inkscape:current-layer="layer1" /><defs
     id="defs1" /><g
     inkscape:label="Camada 1"
     inkscape:groupmode="layer"
     id="layer1"><g
       id="g14"
       transform="translate(16.118938,9.2598154)"><path
         style="fill:#abcb97"
         d="m 100.53485,273.39556 c -0.582083,-0.0703 -2.804583,-0.35847 -4.938888,-0.64027 -2.134305,-0.2818 -7.214305,-0.92348 -11.288888,-1.42596 -4.074583,-0.50249 -8.202083,-1.13616 -9.172221,-1.40817 -0.970139,-0.272 -2.478264,-0.69359 -3.351389,-0.93685 -1.579076,-0.43994 -7.364066,-2.60284 -10.050954,-3.75787 -0.774345,-0.33287 -1.885595,-1.01767 -2.469445,-1.52179 -0.583849,-0.50412 -2.316929,-1.33507 -3.851289,-1.84658 -1.534359,-0.5115 -4.391859,-1.83391 -6.349999,-2.93869 -16.016744,-9.03662 -30.589863,-22.92433 -42.500656,-40.50175 -2.3738401,-3.50321 -7.0000889,-12.44159 -9.3172976,-18.00197 -0.48515,-1.16416 -1.5454171,-3.70417 -2.3561491,-5.64444 -5.2245653,-12.50365 -7.5456293,-20.92227 -9.3822563,-34.02991 -2.871938,-20.49646 -2.329999,-43.2873 1.422187,-59.80899 C -7.4671608,76.251245 2.87599,56.870697 19.219579,40.425016 24.724724,34.885483 33.673884,27.625441 37.338267,25.726157 c 1.821475,-0.944087 0.620975,0.158582 -2.69267,2.47324 C 27.199653,33.400562 19.98705,39.943638 13.773823,47.133701 -0.65822048,63.83473 -9.9312138,84.44068 -13.928999,108.69343 c -2.394572,14.52678 -2.3197,35.94115 0.186865,53.44584 2.011535,14.04762 5.4591197,24.85221 13.62050877,42.68611 3.80369903,8.31168 4.66525443,9.81759 9.48602743,16.58056 6.0158338,8.43951 11.6782598,14.8763 19.1785538,21.80134 8.631334,7.96932 20.494259,15.9291 27.103919,18.18616 1.505362,0.51405 3.387371,1.40575 4.182243,1.98155 0.794872,0.57581 2.261963,1.36094 3.260201,1.74475 0.998238,0.3838 3.481445,1.34146 5.518238,2.12813 2.036792,0.78666 4.071291,1.4303 4.521108,1.4303 0.449817,0 1.164601,0.18608 1.588408,0.41351 0.842326,0.45202 10.329145,1.88792 15.940001,2.41263 1.940277,0.18145 4.797777,0.5783 6.349999,0.88189 2.175612,0.42551 5.210507,0.55086 13.246247,0.5471 10.35459,-0.005 10.45093,-0.0117 14.46389,-1.0353 2.22192,-0.56672 4.75424,-1.26351 5.62736,-1.54841 0.87313,-0.2849 2.54,-0.72464 3.70417,-0.97719 1.16416,-0.25256 2.54266,-0.66944 3.06332,-0.92641 0.52067,-0.25697 2.66379,-0.85258 4.7625,-1.32357 5.96343,-1.33833 6.84869,-1.60589 9.10751,-2.75264 12.81505,-6.50591 16.50546,-8.68312 23.10694,-13.63221 4.43694,-3.32635 10.88301,-8.777 11.67242,-9.86993 0.27413,-0.37952 2.64266,-3.12773 5.26342,-6.10712 7.96461,-9.05455 10.37271,-11.98166 12.58292,-15.29486 6.22076,-9.32519 12.46618,-21.47978 11.52211,-22.42385 -0.22147,-0.22147 -2.14161,0.58755 -5.43404,2.28955 -8.38183,4.33292 -13.86553,6.165 -22.90683,7.65308 -4.41874,0.72727 -5.10213,0.75334 -9.46775,0.3613 -9.64473,-0.86612 -15.40969,-2.47043 -29.3378,-8.1643 -2.8134,-1.15013 -7.81403,-3.10867 -11.1125,-4.35231 -3.29847,-1.24363 -9.80722,-3.72644 -14.46389,-5.51735 -13.43533,-5.1671 -15.22631,-5.81416 -21.00276,-7.58805 -8.962106,-2.75218 -18.545655,-4.35767 -23.270846,-3.89845 -4.861804,0.47249 -10.398257,2.12462 -14.720959,4.39288 -5.971129,3.13324 -11.1514,9.06844 -13.265664,15.19889 -0.88457,2.56487 -1.059122,3.68879 -1.206736,7.77003 -0.149381,4.13007 -0.06684,5.197 0.614053,7.93751 1.550881,6.24207 6.678543,14.58464 11.454781,18.63662 5.000636,4.24234 12.169393,7.59838 18.888413,8.84256 1.649236,0.30539 3.951111,0.74266 5.115278,0.97171 1.164166,0.22904 6.08353,0.50741 10.931919,0.61859 7.978301,0.18296 8.826341,0.26004 8.932021,0.81182 0.15196,0.79336 -2.48301,2.47844 -5.361755,3.42889 -5.245251,1.73178 -13.260487,3.48614 -17.016695,3.72458 -4.296672,0.27275 -10.619205,-0.39479 -15.477156,-1.6341 C 50.980726,244.43324 33.950274,231.22264 20.706394,212.59885 9.800894,197.26333 1.9315515,179.06364 -0.88296514,162.66844 -4.9269798,139.11112 -3.7786698,116.29833 2.3943827,97.559332 7.6962949,81.464778 15.620942,68.586794 27.025567,57.532315 34.669064,50.12349 42.124254,44.841719 51.697333,40.053137 76.208965,27.792091 104.64036,25.028387 132.88326,32.161373 c 22.21583,5.610797 43.31489,18.535133 58.42123,35.786219 19.10364,21.815905 29.47152,49.836998 31.13111,84.137508 0.42631,8.81095 0.28128,12.0063 -0.92602,20.4022 -0.46965,3.26606 -0.84053,6.67919 -0.82418,7.58472 l 0.0297,1.64642 0.69985,-1.52376 c 0.87866,-1.91311 1.8945,-7.13373 2.41494,-12.41097 0.62929,-6.38093 0.86476,-27.13859 0.38618,-34.04306 -1.47643,-21.3003 -6.08695,-40.307289 -13.82006,-56.973612 -1.43377,-3.09004 -2.45431,-5.047803 -5.6088,-10.759724 C 203.08727,62.929188 197.3539,54.592683 194.29027,50.744432 187.7715,42.55613 177.89058,33.41608 169.12981,27.470496 c -1.60164,-1.086968 -3.25393,-2.699287 -2.09637,-2.045655 3.05834,1.726938 10.92221,7.796426 15.24859,11.769169 20.70108,19.008957 34.27523,44.696144 39.92705,75.55636 2.15998,11.79399 2.82829,20.09867 2.83892,35.27779 0.009,12.64397 -0.38024,19.61843 -1.45637,26.10555 -0.53751,3.24025 -1.9384,7.82595 -2.66732,8.73126 -1.24519,1.54652 -1.26599,-1.10638 -0.074,-9.43681 1.57281,-10.99174 1.49619,-22.97596 -0.22999,-35.97063 C 216.55267,106.83602 204.26861,80.874416 184.97144,62.115771 170.51602,48.063754 153.13866,38.200585 133.69596,33.012452 107.3702,25.98763 79.564604,27.995277 55.95881,38.625305 24.495697,52.793597 3.9510911,80.396475 -1.2334781,115.46648 c -2.1990973,14.87537 -1.7132038,33.71698 1.26274707,48.96584 4.25324283,21.79376 16.36319203,44.73816 32.50154903,61.57984 10.187279,10.63125 21.733328,18.21886 32.489925,21.3511 5.834114,1.69885 10.959753,2.36271 16.640498,2.15526 4.598908,-0.16795 5.731975,-0.34839 11.224425,-1.78747 7.796304,-2.04272 12.243624,-4.0229 10.920714,-4.86248 -0.24712,-0.15684 -3.941807,-0.2895 -8.210418,-0.29481 -6.592948,-0.008 -8.547011,-0.14136 -12.982526,-0.88465 -6.401742,-1.07278 -9.431224,-2.06452 -14.839043,-4.85778 -7.303537,-3.77243 -12.346743,-9.04738 -16.265457,-17.01289 -2.702357,-5.49304 -3.528185,-9.20045 -3.24961,-14.58858 0.310157,-5.99896 1.503588,-9.78848 4.448308,-14.12477 3.078708,-4.5336 8.239547,-8.64096 13.784164,-10.9704 4.268931,-1.79349 7.732765,-2.53544 12.699999,-2.72033 9.201643,-0.34251 19.427966,2.19311 38.923623,9.65113 5.85291,2.23901 13.89603,5.30819 17.87359,6.8204 3.97757,1.5122 10.16882,3.93615 13.75834,5.38654 11.53867,4.66237 16.55833,6.14316 24.15062,7.1244 5.84598,0.75554 9.10683,0.68279 14.7635,-0.32936 8.03606,-1.4379 15.64454,-4.17166 22.3731,-8.03874 3.37094,-1.93738 4.10847,-2.18495 4.63152,-1.55471 0.56577,0.68171 -0.0927,2.61048 -2.79086,8.17498 -3.85939,7.95934 -8.87807,15.8747 -13.53238,21.34298 -13.68531,16.07872 -16.72365,19.14323 -25.25384,25.47134 -5.37785,3.98955 -10.09765,6.85552 -17.99166,10.92494 -6.53645,3.36958 -8.95385,4.26415 -15.12364,5.59658 -1.81807,0.39263 -3.59327,0.86784 -3.94488,1.05602 -0.35161,0.18817 -1.88035,0.65182 -3.39719,1.03032 -1.51685,0.37851 -4.74228,1.27361 -7.16762,1.98912 l -4.40973,1.30094 -10.23055,0.0811 c -5.62681,0.0446 -10.70681,0.0236 -11.28889,-0.0468 z m 71.0042,-70.35053 c -4.15283,-0.48381 -6.93194,-1.70341 -10.19253,-4.47297 -2.22605,-1.89083 -17.62585,-14.82791 -20.92526,-17.57893 -1.17655,-0.981 -4.52044,-3.70144 -7.43086,-6.04542 -8.50299,-6.8481 -19.89256,-16.25999 -22.75416,-18.80314 -3.83703,-3.41003 -20.07378,-16.92981 -21.483427,-17.88851 -1.163917,-0.79158 -1.227119,-0.79727 -2.17781,-0.19588 -0.9423,0.59608 -16.666646,15.1568 -24.316538,22.51707 -3.601029,3.4647 -24.648483,23.3088 -31.309746,29.51966 -3.62215,3.37724 -4.576212,3.749 -5.602303,2.18299 -0.539411,-0.82325 -0.54381,-1.00409 -0.04935,-2.02848 0.298569,-0.61855 1.855966,-2.63277 3.460881,-4.47604 3.557792,-4.08616 10.467594,-12.27574 14.233581,-16.8698 1.52992,-1.86632 4.308044,-5.21152 6.173611,-7.43378 1.865567,-2.22226 3.868147,-4.60837 4.450177,-5.30247 0.582031,-0.69411 4.696506,-5.54826 9.143279,-10.78701 4.446772,-5.23875 10.779382,-12.77937 14.072467,-16.75694 7.537765,-9.10453 9.632501,-11.28889 10.825699,-11.28889 1.033325,0 4.096311,2.33619 9.173925,6.9971 3.496354,3.20942 4.716364,4.25642 11.994444,10.29346 2.42534,2.01178 5.67972,4.78744 7.23194,6.16813 4.07781,3.62718 8.11775,6.8802 8.54454,6.8802 0.52937,0 0.79373,-1.25963 0.79925,-3.8084 0.004,-1.91447 0.13063,-2.3467 0.91663,-3.13271 0.84515,-0.84514 1.08219,-0.89813 3.24217,-0.72475 3.32058,0.26655 3.3747,0.37782 3.08624,6.34626 -0.12903,2.66971 -0.12554,5.72691 0.008,6.79378 0.28339,2.26817 0.68731,2.70582 8.80342,9.53865 2.71639,2.28688 7.00264,5.92748 9.525,8.09021 15.821,13.56529 24.91179,21.27859 28.90123,24.52196 5.76743,4.68887 5.84738,4.76808 5.84738,5.79348 0,1.03317 -1.05744,1.45172 -4.94059,1.95556 -3.02946,0.39306 -5.85085,0.39173 -9.25104,-0.004 z m 12.16315,-1.01485 c 0.91416,-0.28536 1.32292,-0.61822 1.32292,-1.07728 0,-0.43024 -2.14416,-2.43889 -6.08541,-5.70081 -5.61484,-4.64702 -9.06413,-7.57547 -20.54931,-17.44631 -2.32833,-2.00107 -6.69396,-5.72417 -9.70139,-8.27355 -13.85475,-11.74461 -15.97437,-13.61872 -16.26746,-14.38329 -0.1722,-0.44919 -0.31309,-3.73767 -0.31309,-7.30773 0,-7.41433 0.0835,-7.22139 -3.12661,-7.22139 -2.68409,0 -3.11633,0.71352 -3.31246,5.46806 -0.13082,3.17107 -0.64048,3.03841 -6.08454,-1.58379 -2.52236,-2.14157 -8.23736,-6.98598 -12.7,-10.76535 -4.46264,-3.77937 -9.622013,-8.24732 -11.465277,-9.92878 -3.369158,-3.0734 -7.239012,-6.1207 -7.772852,-6.1207 -0.737053,0 -3.133393,2.60282 -10.352881,11.24494 -9.395983,11.2475 -11.539037,13.79749 -15.203484,18.09044 -4.962465,5.8136 -15.810182,18.74606 -18.159813,21.64982 -2.4457,3.02248 -7.606771,9.12736 -13.179286,15.58937 -5.288863,6.13309 -5.98796,7.40522 -4.505523,8.1986 0.551182,0.29498 0.958704,0.12627 2.204861,-0.91277 1.589155,-1.32504 11.554538,-10.69192 28.099393,-26.41178 5.309474,-5.04472 11.038961,-10.44222 12.732194,-11.99445 1.693233,-1.55222 6.280178,-5.79878 10.193213,-9.4368 7.644456,-7.1072 7.983291,-7.30719 9.831695,-5.80317 4.952509,4.02978 16.57997,13.74671 19.69443,16.45838 5.60441,4.87962 14.22511,12.00033 27.3536,22.5941 1.80339,1.45521 4.80794,3.938 6.67679,5.51733 1.86884,1.57932 5.86033,4.91307 8.86998,7.40833 3.00965,2.49526 6.73265,5.62705 8.27335,6.95953 4.2576,3.6822 6.38337,4.82827 10.21958,5.50969 2.35894,0.41901 11.65547,0.19501 13.30738,-0.32064 z m 6.61459,-2.06571 c -1.55633,-0.53867 -23.28333,-19.55744 -23.28333,-20.38111 0,-1.13861 6.59608,-7.21353 7.83237,-7.21353 0.8577,0 22.46204,21.04483 22.73994,22.15102 0.2378,0.94659 -0.37228,1.71455 -2.74666,3.45751 -1.94432,1.42726 -3.8056,2.2411 -4.54232,1.98611 z m 4.72013,-2.53927 c 1.31976,-1.01152 2.20494,-1.96776 2.27713,-2.45992 0.0958,-0.65285 -1.89604,-2.7827 -10.52951,-11.25933 -5.85619,-5.7498 -10.94679,-10.59623 -11.31245,-10.76984 -0.49001,-0.23266 -1.02625,-0.0765 -2.03928,0.5939 -1.90252,1.25903 -6.04658,5.27543 -6.04658,5.86031 0,0.58963 0.74052,1.2915 9.66225,9.15798 7.25846,6.39994 11.73343,10.14021 12.99745,10.86352 0.99779,0.57096 2.36306,0.0275 4.99099,-1.98662 z m -2.86472,-11.38523 c -14.15891,-13.80738 -14.90819,-14.58774 -14.90819,-15.52657 0,-0.67178 0.62645,-1.42298 2.53967,-3.04544 1.39683,-1.18453 2.78589,-2.15271 3.08681,-2.15152 0.30092,0.001 0.11134,0.22951 -0.42129,0.50736 -1.94067,1.01236 -4.85241,3.82568 -4.85241,4.68838 0,0.87741 0.87148,1.78596 14.21742,14.82223 3.8791,3.7891 7.23631,6.79097 7.59482,6.79097 0.74567,0 1.93055,-1.17609 3.09791,-3.07491 0.45133,-0.73415 0.82556,-1.21016 0.83161,-1.05781 0.0396,0.9974 -3.02682,4.4855 -3.94331,4.4855 -0.35479,0 -3.58835,-2.87425 -7.24304,-6.43819 z m 11.19736,0.85034 c 0,-0.65937 -1.89836,-2.79002 -12.30882,-13.81493 -6.94597,-7.35595 -7.80032,-8.31232 -7.05663,-7.89932 0.31157,0.17303 1.26407,1.14351 2.11667,2.15662 0.85259,1.01311 5.16174,5.65348 9.57587,10.31194 5.01978,5.29763 8.02569,8.73672 8.02569,9.18228 0,0.39181 -0.0794,0.71237 -0.17639,0.71237 -0.097,0 -0.17639,-0.29203 -0.17639,-0.64896 z m -6.70428,-11.43368 c -9.20004,-9.4828 -11.28738,-11.77632 -11.28738,-12.40234 0,-0.52177 3.35639,-3.38447 3.96814,-3.38447 0.4167,0 1.03579,0.6317 9.44015,9.63231 7.7857,8.33806 8.35846,9.21846 7.38912,11.35797 -0.23564,0.52012 -0.26933,0.38007 -0.12819,-0.53283 0.10531,-0.68112 0.0268,-1.67144 -0.1744,-2.20072 -0.36401,-0.95741 -16.05488,-17.90395 -16.57735,-17.90395 -0.56924,0 -3.56469,2.58616 -3.56469,3.07763 0,0.28259 1.46501,2.04729 3.25558,3.92156 10.68692,11.18647 15.07427,15.57859 15.56166,15.57859 0.30276,0 0.71229,-0.27781 0.91005,-0.61736 0.19777,-0.33955 0.36441,-0.45067 0.37031,-0.24694 0.0155,0.53463 -0.74876,1.21708 -1.36297,1.21708 -0.28986,0 -3.79988,-3.37344 -7.80003,-7.49653 z m -33.38657,1.39861 c -0.41587,-0.23566 -2.71775,-2.17948 -5.11528,-4.31961 -2.39752,-2.14013 -7.29601,-6.40672 -10.88553,-9.48132 -3.58951,-3.07459 -7.53709,-6.46987 -8.77239,-7.54506 -2.19882,-1.91384 -3.57088,-3.67491 -3.57351,-4.58671 -0.002,-0.67937 1.63554,-2.19003 2.3639,-2.1808 0.40643,0.005 0.22671,0.20855 -0.50157,0.56763 -2.34437,1.1559 -1.72887,2.88933 2.23186,6.28555 1.3692,1.17404 5.02548,4.30111 8.12508,6.94903 3.0996,2.64793 7.74671,6.69605 10.32692,8.99584 2.5802,2.29978 5.26974,4.5378 5.97675,4.97337 1.32378,0.81555 1.17364,1.107 -0.17623,0.34208 z m 4.95096,-2.74321 c 3.45627,-2.92877 4.0283,-3.72946 3.44044,-4.81568 -0.18773,-0.34688 -5.07809,-5.19406 -10.86746,-10.7715 -5.78938,-5.57745 -10.87131,-10.53839 -11.29319,-11.02431 -0.99634,-1.14759 -1.76802,-1.12413 -6.89617,0.2096 -2.3116,0.60119 -4.26917,1.02683 -4.35015,0.94585 -0.21461,-0.21462 8.42253,-2.39172 9.48855,-2.39172 0.70351,0 2.75566,1.82154 9.29851,8.2536 4.61766,4.53948 9.39684,9.08503 10.62038,10.10121 2.49783,2.07452 4.65454,4.70366 4.65454,5.67412 0,0.60095 -6.50925,6.65012 -7.16536,6.65891 -0.15741,0.002 1.22405,-1.27593 3.06991,-2.84008 z m -139.66148,-0.5187 c -1.164167,-0.25745 -3.148542,-0.57095 -4.409722,-0.69667 -4.290568,-0.42771 -5.595567,-1.26632 -3.792361,-2.437 0.436563,-0.28343 4.1275,-1.57103 8.202083,-2.86134 4.074583,-1.29031 7.563569,-2.49525 7.753303,-2.67764 0.318236,-0.30593 0.907784,-5.2833 1.018898,-8.60225 l 0.04724,-1.41111 -6.569014,-3.35139 c -6.908652,-3.52466 -7.718484,-4.02745 -7.718484,-4.79209 0,-0.81541 2.417777,-1.16283 9.701388,-1.39405 7.669219,-0.24346 8.921807,-0.45867 9.675202,-1.66235 0.273532,-0.43701 1.205588,-1.94142 2.071237,-3.34314 l 1.573906,-2.54857 -1.425925,-2.39032 c -0.784259,-1.31467 -2.876066,-4.21594 -4.64846,-6.44726 -3.812912,-4.80019 -5.65846,-7.49485 -5.65846,-8.26186 0,-1.12322 1.864564,-0.50595 9.081327,3.00639 7.778627,3.7858 9.596678,4.54992 10.825471,4.54992 1.450694,0 5.845977,-3.56178 5.845977,-4.73737 0,-0.39864 -0.783123,-3.9805 -1.740274,-7.95969 -0.957151,-3.97919 -2.033245,-8.58426 -2.39132,-10.2335 l -0.651045,-2.99861 -4.046874,-0.17639 -4.046875,-0.17639 -0.107559,-1.48049 c -0.117288,-1.614409 -0.11126,-1.61829 3.72716,-2.399903 2.335178,-0.475509 2.201232,0.94144 2.201232,-23.28573 0,-13.205781 -0.135414,-22.356617 -0.338749,-22.891427 -0.264531,-0.695771 -0.786244,-1.013273 -2.381249,-1.449173 -2.856194,-0.780571 -3.100835,-0.963778 -3.100835,-2.322166 0,-1.150474 0.05564,-1.197427 1.756893,-1.482645 2.561202,-0.42939 13.813448,-0.169604 14.312366,0.330436 0.22226,0.22276 1.553048,3.794635 2.957307,7.937501 8.732528,25.762837 10.187634,29.907509 10.444216,29.748932 0.156746,-0.09687 0.525704,-0.92833 0.819907,-1.84768 1.249992,-3.906066 10.572321,-32.511468 11.105848,-34.078094 0.3918,-1.150465 0.85282,-1.818092 1.400731,-2.028473 0.914557,-0.35116 14.603424,-0.425792 15.870074,-0.08652 0.70305,0.188308 0.79757,0.409118 0.70556,1.648352 l -0.10624,1.430917 -2.11666,0.477893 c -3.90466,0.881579 -3.51393,-1.692952 -3.62359,23.875416 -0.11077,25.828231 -0.43253,23.608161 3.51962,24.28454 2.12471,0.363629 2.43663,0.340439 3.06457,-0.227844 1.51419,-1.370319 1.76671,-0.06779 0.91666,4.728108 -0.29232,1.64923 -0.76548,4.77077 -1.05147,6.93676 -0.28599,2.16598 -0.70708,4.34879 -0.93576,4.85069 -0.56644,1.24319 -1.83914,1.24861 -7.230985,0.0308 -0.415161,-0.0938 -0.8506,-0.42004 -0.967642,-0.72504 -0.260786,-0.6796 0.07699,-1.34295 3.458197,-6.79143 1.4707,-2.36991 2.67401,-4.46606 2.67401,-4.65812 0,-0.41171 -18.337961,-0.49625 -18.35612,-0.0846 -0.0064,0.14552 0.654661,2.58244 1.46907,5.41538 0.814408,2.83293 1.380268,5.41262 1.257466,5.73264 -0.147744,0.38501 -0.634956,0.58185 -1.440217,0.58185 -0.669318,0 -1.472408,0.098 -1.784645,0.21784 -0.312237,0.11982 -2.81409,2.93763 -5.559672,6.26181 -2.745583,3.32418 -7.157132,8.58396 -9.803444,11.6884 -2.646312,3.10445 -6.455083,7.7082 -8.463936,10.23056 -2.008853,2.52236 -5.258808,6.41174 -7.222122,8.64306 -1.963314,2.23132 -4.592857,5.32694 -5.84343,6.87916 -1.250572,1.55223 -3.551277,4.33579 -5.112677,6.18571 -1.5614,1.84991 -3.762121,4.59013 -4.89049,6.08939 -1.128369,1.49925 -2.388999,2.96224 -2.801399,3.2511 -0.923754,0.64702 -4.155903,0.64013 -7.119216,-0.0152 z m 6.766438,-0.33759 c 0.4124,-0.28885 1.67303,-1.75185 2.801399,-3.2511 1.128369,-1.49925 3.32909,-4.23948 4.89049,-6.08939 1.5614,-1.84992 3.862105,-4.63348 5.112677,-6.1857 1.250573,-1.55223 3.880097,-4.64785 5.843387,-6.87917 1.96329,-2.23132 5.61307,-6.59695 8.110621,-9.70139 2.497552,-3.10445 6.850524,-8.35907 9.673271,-11.67694 2.822748,-3.31788 6.917604,-8.19944 9.09968,-10.84792 l 3.967412,-4.81542 h 1.588838 c 1.51965,0 1.588837,-0.0448 1.588837,-1.02766 0,-0.56521 -0.631305,-3.12635 -1.4029,-5.69141 -0.771596,-2.56507 -1.317852,-4.80138 -1.213903,-4.96957 0.271809,-0.4398 19.101613,-0.39334 19.374253,0.0478 0.1202,0.19449 -1.21981,2.72686 -2.97779,5.62751 -1.75798,2.90065 -3.196327,5.43469 -3.196327,5.63121 0,0.57099 1.050118,0.97109 3.842007,1.46383 2.51592,0.44403 2.62861,0.43382 3.21568,-0.29118 0.37194,-0.45933 0.7045,-1.72659 0.85566,-3.26067 0.13599,-1.38013 0.5532,-4.28613 0.92712,-6.45779 0.37392,-2.17165 0.68091,-4.5632 0.68219,-5.314565 0.002,-1.180882 -0.0702,-1.305927 -0.5325,-0.922234 -0.36404,0.302131 -1.13152,0.373749 -2.40336,0.224269 -2.74735,-0.322897 -4.12101,-0.898215 -4.49532,-1.882736 -0.18888,-0.496782 -0.32759,-10.171413 -0.32759,-22.848184 0,-25.269996 -0.31708,-23.103992 3.53605,-24.15504 2.0581,-0.561405 2.29634,-0.721087 2.40123,-1.609437 0.0652,-0.551826 -0.0902,-1.117212 -0.35278,-1.283656 -0.67762,-0.429571 -15.013595,-0.384413 -15.825021,0.04985 -0.492541,0.2636 -1.796745,3.824839 -4.941709,13.493751 -7.606327,23.384977 -8.160799,24.992593 -8.57268,24.855299 -0.21867,-0.07289 -3.280273,-8.662157 -6.803563,-19.08726 -3.52329,-10.425102 -6.515502,-19.064708 -6.649362,-19.199123 -0.346312,-0.34775 -10.09645,-0.527439 -13.171154,-0.242736 l -2.577606,0.238674 0.108162,1.08071 c 0.100574,1.004902 0.265308,1.123571 2.348459,1.69176 3.735416,1.018852 3.390759,-1.370419 3.499867,24.262213 0.07887,18.528918 0.01117,22.603242 -0.384582,23.144464 -0.278257,0.380539 -1.505729,0.914983 -2.917943,1.27048 -2.411199,0.606972 -2.43764,0.626519 -2.43764,1.802111 v 1.18849 l 4.409722,0.17639 c 2.425347,0.097 6.394097,0.097 8.819444,0 l 4.409722,-0.17639 0.108297,-1.11637 c 0.116378,-1.199686 0.210978,-1.134629 -2.75413,-1.894057 -2.999985,-0.768362 -2.822222,0.136114 -2.822222,-14.359756 0,-10.068808 0.09471,-12.819543 0.437443,-12.705297 0.240594,0.0802 2.979031,6.726185 6.085416,14.768861 3.106385,8.042676 5.776404,14.816539 5.933376,15.053029 0.392401,0.59118 5.325711,0.58185 5.807148,-0.011 0.19696,-0.24253 2.053712,-5.917847 4.126116,-12.611806 2.072404,-6.693959 4.39366,-14.186976 5.158347,-16.651149 0.764687,-2.464173 1.546748,-4.57698 1.737912,-4.695126 0.226129,-0.139755 0.347572,4.942052 0.347572,14.544182 0,12.478251 -0.08091,14.874509 -0.523587,15.506519 -0.546611,0.780396 -3.735845,1.769669 -4.39392,1.362956 -0.200689,-0.124032 -0.616364,-1.090559 -0.923723,-2.147836 -0.319537,-1.09917 -0.762191,-1.922323 -1.033736,-1.922323 -0.563792,0 -0.771044,0.90293 -2.469703,10.759723 -1.917146,11.1246 -1.916062,11.1201 -2.893068,12.02555 -0.959274,0.88903 -4.275496,1.73832 -5.544221,1.41989 -0.934316,-0.2345 -3.025637,-2.44196 -9.08474,-9.58927 -2.455922,-2.89701 -4.876859,-5.65214 -5.379861,-6.12253 l -0.914549,-0.85524 v 0.89 c 0,0.97924 1.038333,5.77235 2.99578,13.82898 1.685754,6.93838 1.642327,7.30345 -1.127464,9.47825 -1.203746,0.94516 -2.648615,1.8504 -3.210821,2.01164 -1.386606,0.39767 -3.089741,-0.24164 -11.194914,-4.20231 -7.337275,-3.58543 -8.629246,-4.09397 -8.629246,-3.3966 0,0.56307 2.098614,3.56878 5.811983,8.32414 3.435792,4.3999 5.476905,7.53443 5.476905,8.41088 0,1.00822 -3.903131,7.00838 -4.835258,7.43309 -0.463311,0.21109 -2.144602,0.39663 -3.736202,0.41229 -3.944459,0.0388 -13.539449,0.79817 -13.836282,1.09501 -0.507018,0.50701 0.428009,1.09791 6.903912,4.36299 3.67272,1.85174 6.816194,3.637 6.985499,3.96725 0.18407,0.35904 0.122237,1.80599 -0.153801,3.59905 -0.253896,1.64924 -0.470282,3.60436 -0.480859,4.34472 -0.03434,2.40356 -0.214484,2.51925 -7.520974,4.83009 -7.279979,2.30244 -9.431588,3.11508 -9.431588,3.56219 0,0.38455 2.365209,1.01394 3.880555,1.03263 0.679097,0.008 2.663472,0.30816 4.409722,0.6662 3.997263,0.81956 5.814022,0.87552 6.766438,0.20842 z m 40.952743,-55.70036 c 0.599794,-0.31016 1.179429,-0.84401 1.288077,-1.18633 0.108648,-0.34232 0.922854,-4.74937 1.809347,-9.79345 0.886493,-5.04409 1.723276,-9.789777 1.859517,-10.545985 0.28297,-1.570624 1.141312,-2.34001 1.904209,-1.706862 0.268449,0.222793 0.693209,1.205416 0.943911,2.183607 0.250703,0.978191 0.596332,1.865368 0.768065,1.971505 0.470602,0.290848 3.043176,-0.486988 3.664034,-1.107846 0.473413,-0.473413 0.545043,-2.403935 0.545043,-14.689753 0,-7.779591 -0.08155,-14.063161 -0.181221,-13.96349 -0.09967,0.09967 -2.015854,6.118943 -4.258183,13.376159 -2.242329,7.257216 -4.581717,14.703063 -5.19864,16.546327 l -1.121678,3.351388 -3.100478,0.10213 -3.100479,0.10213 -0.650369,-1.51324 C 71.100822,99.849387 68.540415,93.254991 65.768731,86.027455 62.997048,78.79992 60.597117,72.886482 60.435553,72.886482 c -0.161565,0 -0.293755,5.386161 -0.293755,11.969247 0,10.285988 0.07609,12.045339 0.54107,12.510317 0.544504,0.544505 2.670264,1.267593 3.737262,1.271249 0.890953,0.0031 1.425286,0.899271 1.301988,2.183785 l -0.112265,1.16957 -3.968749,0.0998 c -2.342717,0.0589 -3.96875,0.24421 -3.96875,0.45234 0,0.33284 6.132589,7.62626 11.214956,13.33782 l 2.314487,2.60102 1.997519,-0.18113 c 1.098636,-0.0996 2.488261,-0.4349 3.088055,-0.74507 z m 2.541346,55.5826 c -0.778435,-0.63034 -0.884461,-1.02012 -0.992143,-3.64738 -0.106097,-2.58859 -0.02894,-3.05803 0.642933,-3.91175 0.736426,-0.93574 0.881431,-0.97014 4.089283,-0.97014 2.904849,0 3.419252,0.0935 4.064271,0.73849 0.664618,0.66462 0.726371,1.06872 0.617361,4.03989 -0.07665,2.08927 -0.289294,3.46958 -0.57915,3.75943 -0.288901,0.2889 -1.660464,0.50219 -3.714501,0.57762 -2.839176,0.10427 -3.368165,0.0292 -4.128054,-0.58616 z m 7.348079,-0.48593 c 0.571745,-0.57175 0.571745,-6.3427 0,-6.91445 -0.267232,-0.26723 -1.607098,-0.42333 -3.633611,-0.42333 -2.026512,0 -3.366378,0.1561 -3.63361,0.42333 -0.665934,0.66594 -0.561136,6.09125 0.131031,6.78342 0.694774,0.69477 6.466471,0.80075 7.13619,0.13103 z m 5.1207,0.79174 c -1.188341,-0.50669 -1.522367,-1.49406 -1.522367,-4.50006 0,-4.07847 0.258919,-4.33502 4.37505,-4.33502 4.260514,0 4.444394,0.17833 4.444394,4.31023 0,4.14768 -0.402108,4.63473 -3.930464,4.76074 -1.427758,0.051 -2.942734,-0.0552 -3.366613,-0.23589 z m 5.946382,-0.95225 c 0.524409,-0.47458 0.645139,-1.12157 0.645139,-3.45722 0,-1.76448 -0.163373,-3.03676 -0.423333,-3.29672 -0.259575,-0.25957 -1.528703,-0.42333 -3.280833,-0.42333 -1.752129,0 -3.021258,0.16376 -3.280833,0.42333 -0.46476,0.46476 -0.591626,5.8349 -0.153348,6.49113 0.41243,0.61754 1.162893,0.78905 3.582792,0.8188 1.642737,0.0202 2.442574,-0.1326 2.910416,-0.55599 z m 71.084162,-9.55671 c -13.06518,-12.72195 -16.8168,-16.48713 -16.8168,-16.8776 0,-0.60239 0.73976,-1.11859 1.94225,-1.35529 0.95721,-0.18842 0.94047,-0.16331 -0.17837,0.26746 -0.67909,0.26146 -1.28075,0.71163 -1.33701,1.00038 -0.082,0.42072 11.122,11.56788 20.98916,20.88273 l 1.48409,1.40102 1.33813,-0.93794 c 2.04517,-1.43353 4.6898,-3.98422 4.6872,-4.52071 -0.001,-0.26357 -0.27909,-0.89479 -0.61736,-1.40271 -1.08454,-1.62846 -16.74975,-17.92903 -17.44106,-18.14844 -0.36643,-0.1163 -1.33423,-0.12543 -2.15066,-0.0203 l -1.48443,0.19115 1.32948,-0.37564 c 2.00129,-0.56546 2.92091,-0.14756 5.3098,2.41294 1.19909,1.28522 4.01465,4.25597 6.25679,6.60166 7.40893,7.75109 9.15254,9.7703 9.15254,10.59927 0,1.07182 -5.33207,5.83646 -6.53153,5.83646 -0.12536,0 -2.79486,-2.4995 -5.93222,-5.55444 z m -89.610734,-0.38237 c -0.73073,-0.80744 -0.839424,-6.29187 -0.14287,-7.20888 0.572139,-0.75322 7.373426,-1.04991 8.07321,-0.35218 0.28124,0.28042 0.445929,1.58618 0.459894,3.64634 0.02872,4.23742 -0.305408,4.55986 -4.725149,4.55986 -2.537032,0 -3.18436,-0.11394 -3.665085,-0.64514 z m 7.222267,-0.64451 c 0.624982,-0.75397 0.597705,-5.52066 -0.03596,-6.28418 -0.328964,-0.39638 -1.146803,-0.54006 -3.074038,-0.54006 -3.844191,0 -3.990556,0.13373 -3.990556,3.64603 0,1.79735 0.162369,3.07801 0.423333,3.33897 0.260236,0.26024 1.534784,0.42334 3.308193,0.42334 2.254761,0 2.99061,-0.12758 3.369028,-0.5841 z m 4.400814,0.74618 c -0.781006,-0.78101 -0.821011,-6.91899 -0.04927,-7.55948 0.646474,-0.53653 4.290417,-0.88605 5.964074,-0.57207 2.083184,0.39081 2.339382,0.89796 2.339382,4.63086 0,3.98517 0.07085,3.92156 -4.461825,4.0059 -2.547388,0.0474 -3.346162,-0.059 -3.792361,-0.50521 z m 7.473418,-3.58231 c 0.09412,-3.01743 0.04791,-3.27234 -0.662004,-3.65227 -1.09446,-0.58574 -5.902804,-0.29904 -6.330592,0.37747 -0.496729,0.78552 -0.421449,5.76743 0.09495,6.28384 0.297402,0.2974 1.443901,0.40366 3.615972,0.33514 l 3.180495,-0.10034 z m 76.162405,-7.17697 c -6.45668,-6.76513 -8.37695,-8.98208 -8.29028,-9.57116 0.062,-0.42166 0.32337,-0.83605 0.58074,-0.92087 0.3775,-0.12441 0.38501,-0.0214 0.0388,0.53287 -0.27575,0.44156 -0.31456,0.89173 -0.10859,1.25978 0.17628,0.31499 2.46067,2.76202 5.07644,5.43784 2.61576,2.67583 6.2224,6.41245 8.01474,8.3036 2.13559,2.25332 3.51782,3.43847 4.01026,3.43847 0.41329,0 1.37681,-0.62538 2.14116,-1.38973 1.93249,-1.93249 2.40794,-1.20303 -8.87041,-13.60946 l -4.39907,-4.83907 -1.77454,0.20481 c -0.976,0.11264 -2.17142,0.2873 -2.65649,0.38812 -0.48507,0.10083 -0.24694,-0.0399 0.52917,-0.31273 0.77611,-0.27283 1.99268,-0.50825 2.70349,-0.52316 1.22838,-0.0258 1.54281,0.24652 6.35,5.49884 10.11778,11.05469 10.05133,10.96483 9.25703,12.51985 -0.54364,1.06432 -2.54355,2.42243 -3.5355,2.4009 -0.39735,-0.009 -4.03779,-3.54946 -9.06699,-8.8189 z m -38.62608,-5.72664 c -0.42061,-0.5068 -0.74162,-8.39591 -0.33125,-8.14072 0.14552,0.0905 0.26701,1.78235 0.26998,3.75968 0.003,1.97733 0.14417,3.81425 0.31377,4.08203 0.22494,0.35515 0.7723,0.43157 2.02307,0.28245 1.16464,-0.13885 1.43178,-0.10827 0.83276,0.0953 -1.34056,0.45561 -2.69329,0.42134 -3.10833,-0.0788 z m 6.7243,-1.03609 c 2.22942,-0.5796 2.73403,-0.83742 2.73403,-1.39692 0,-0.39098 -1.19155,-1.85362 -2.7699,-3.40007 -1.52344,-1.49265 -6.42674,-6.3169 -10.89623,-10.72055 -8.01932,-7.90118 -9.82009,-9.42516 -11.2047,-9.4824 -0.40781,-0.0169 -0.5119,-0.10678 -0.24666,-0.21308 0.25239,-0.10116 0.96677,0.0242 1.5875,0.2785 1.23369,0.50548 23.55025,22.15893 23.94931,23.23769 0.13813,0.3734 0.0618,0.81155 -0.17566,1.00772 -0.468,0.38668 -4.48598,1.48778 -5.23347,1.43419 -0.26304,-0.0189 0.75207,-0.35414 2.25578,-0.74508 z m 14.1993,-1.18565 c 0.97014,-0.26995 1.92264,-0.47723 2.11667,-0.46063 0.59701,0.0511 -2.42399,0.9606 -3.175,0.95588 -0.38805,-0.002 0.0882,-0.2253 1.05833,-0.49525 z m -9.20748,-1.5173 c -0.75672,-0.55708 -2.25522,-1.94614 -3.33002,-3.0868 -1.07479,-1.14067 -5.3046,-5.20986 -9.39958,-9.04265 -4.09497,-3.83279 -7.54153,-7.21922 -7.65902,-7.52538 -0.49055,-1.27834 -0.24989,-1.55873 1.28569,-1.49799 l 1.49931,0.0593 -1.32292,0.13838 c -2.47171,0.25855 -2.03435,0.81053 8.03307,10.13812 4.55559,4.22082 8.2829,7.80071 8.2829,7.95532 0,0.56471 3.5967,3.27329 4.69281,3.53403 1.02749,0.24441 1.04628,0.27154 0.21081,0.30443 -0.50446,0.0199 -1.53633,-0.41968 -2.29305,-0.97676 z m 6.37088,-0.0553 c 1.73833,-0.36615 3.21796,-0.60837 3.28805,-0.53828 0.19111,0.19111 -4.69993,1.25744 -5.63636,1.22882 -0.44677,-0.0136 0.60997,-0.32439 2.34831,-0.69054 z m 4.68869,-1.22169 c 0.63059,-0.27408 1.14653,-0.72695 1.14653,-1.00637 0,-0.27942 -0.75198,-1.35865 -1.67105,-2.39828 -3.31935,-3.75475 -12.5139,-13.1889 -13.262,-13.6076 -0.50759,-0.28409 -0.58725,-0.43379 -0.2364,-0.44425 1.0187,-0.0304 15.52222,15.40259 15.52222,16.51695 0,0.61705 -1.32199,1.48095 -2.22146,1.45169 -0.2334,-0.008 0.0916,-0.23806 0.72216,-0.51214 z m -37.30625,-1.11771 c -0.48507,-0.33076 -1.84248,-1.48996 -3.01647,-2.576 -1.17399,-1.08604 -6.01587,-5.28905 -10.75972,-9.34003 -13.179729,-11.25472 -13.116065,-11.17991 -9.418946,-11.06806 l 2.204861,0.0667 -2.028472,0.12729 c -1.11566,0.07 -2.028472,0.2731 -2.028472,0.45131 0,0.17821 2.174455,2.19435 4.832119,4.48031 6.88421,5.92136 12.83441,11.05848 17.17471,14.82782 2.06662,1.79476 3.90575,3.26319 4.08697,3.26319 0.18121,0 0.50196,-0.27781 0.71277,-0.61736 0.35095,-0.56525 0.37442,-0.55814 0.27807,0.0842 -0.13877,0.92495 -0.94697,1.04422 -2.03742,0.30067 z m 37.46113,-4.43579 c -2.46203,-2.56758 -5.40384,-5.54061 -6.53737,-6.60674 -2.18047,-2.05081 -3.2415,-3.65888 -2.84136,-4.30631 0.32459,-0.52521 5.34648,-0.15005 7.90093,0.59024 1.76445,0.51135 2.35108,0.9843 6.47354,5.21908 5.40878,5.55616 6.57431,7.11516 5.8438,7.8166 -0.41903,0.40237 -5.26352,1.95546 -6.09955,1.95546 -0.14497,0 -2.27797,-2.10075 -4.73999,-4.66833 z m 8.28223,3.39478 c 2.81422,-0.80792 2.89755,-1.1418 0.88407,-3.54198 -0.95213,-1.135 -3.3,-3.68149 -5.21749,-5.65888 -3.08399,-3.18033 -3.70943,-3.65929 -5.41954,-4.15021 -2.28006,-0.65455 -6.40469,-1.09019 -7.25014,-0.76576 -0.55418,0.21266 -0.55233,0.29365 0.0272,1.19467 0.34193,0.5316 1.83779,2.15717 3.32413,3.61238 1.48634,1.45521 4.32571,4.36802 6.30971,6.47292 3.99204,4.23531 3.3436,3.98476 7.34204,2.83686 z m -43.62669,-0.45561 c 0,-0.36633 0.67106,-0.89666 0.86983,-0.68741 0.0645,0.0679 -0.10477,0.32822 -0.37625,0.5784 -0.27147,0.25018 -0.49358,0.29924 -0.49358,0.10901 z m 3.95331,-1.00153 c 1.3012,-0.0677 3.5237,-0.0681 4.93889,-10e-4 1.41519,0.0671 0.35057,0.12251 -2.36581,0.12306 -2.71639,5.5e-4 -3.87428,-0.0544 -2.57308,-0.12206 z m 13.50919,-14.20264 -1.41111,-0.25266 1.23472,-0.008 c 0.67909,-0.005 1.71097,0.11286 2.29305,0.26098 0.93511,0.23794 0.95565,0.26833 0.17639,0.26098 -0.48507,-0.005 -1.51694,-0.12202 -2.29305,-0.26098 z m -3.2632,-0.59596 c 0.33955,-0.0887 0.89518,-0.0887 1.23472,0 0.33955,0.0887 0.0617,0.16134 -0.61736,0.16134 -0.67909,0 -0.95691,-0.0726 -0.61736,-0.16134 z m -2.10995,-0.35407 c 0.34324,-0.0894 0.81949,-0.0836 1.05833,0.0131 0.23884,0.0966 -0.042,0.16982 -0.62407,0.16263 -0.58209,-0.007 -0.7775,-0.0863 -0.43426,-0.1757 z m -4.32824,-0.46108 c -1.76315,-0.37113 0.0456,-0.38652 2.11666,-0.018 1.43198,0.2548 1.46654,0.28225 0.35278,0.28019 -0.67909,-10e-4 -1.79034,-0.11924 -2.46944,-0.26218 z m -12.95787,-2.36114 c 0.34324,-0.0894 0.81949,-0.0836 1.05833,0.0131 0.23885,0.0966 -0.042,0.16982 -0.62407,0.16263 -0.58209,-0.007 -0.7775,-0.0863 -0.43426,-0.1757 z m -5.73935,-0.63747 c -1.45521,-0.2408 -2.16959,-0.44645 -1.5875,-0.45699 0.58208,-0.0105 2.32833,0.18803 3.88055,0.44128 1.55222,0.25326 2.2666,0.45891 1.5875,0.45699 -0.67909,-0.002 -2.42534,-0.20049 -3.88055,-0.44128 z m 10.87373,-0.42658 c -0.51938,-0.0795 -1.14923,-0.39137 -1.39967,-0.69313 -0.58619,-0.70632 0.0114,-1.20119 5.0923,-4.21717 5.79148,-3.43776 6.92457,-3.16682 3.4823,0.83268 -3.63556,4.22409 -4.18321,4.53533 -7.17493,4.07762 z m 5.59363,-3.1894 c 3.70701,-3.94686 3.499,-4.19881 -1.1989,-1.45213 -4.36147,2.54998 -5.5799,3.49657 -4.98551,3.87324 0.26222,0.16616 1.18322,0.30455 2.04665,0.30752 1.50442,0.005 1.67695,-0.1086 4.13776,-2.72863 z m -21.66598,2.83366 c 0.53624,-0.0811 1.32999,-0.0789 1.76388,0.005 0.4339,0.0837 -0.005,0.15008 -0.97498,0.14743 -0.97014,-0.003 -1.32515,-0.0712 -0.7889,-0.15225 z m -2.99935,-0.34913 c 0.43882,-0.0844 1.07382,-0.0812 1.41111,0.007 0.33729,0.0883 -0.0217,0.15733 -0.79786,0.15342 -0.77612,-0.004 -1.05208,-0.0762 -0.61325,-0.16054 z m -3.17911,-0.35224 c 0.43656,-0.0841 1.15093,-0.0841 1.58749,0 0.43657,0.0841 0.0794,0.15288 -0.79375,0.15288 -0.87312,0 -1.23031,-0.0688 -0.79374,-0.15288 z m 38.83264,-31.501379 -15.28473,-18.344787 -0.0921,14.687958 c -0.0625,9.963541 0.0282,14.832969 0.28205,15.138791 0.20579,0.247959 1.19974,0.64451 2.20877,0.881225 2.59352,0.608428 3.07015,0.923477 3.06393,2.025262 -0.0106,1.88352 0.12482,1.85903 -9.72056,1.75756 l -9.14764,-0.0943 -0.11227,-1.16957 c -0.1463,-1.524208 0.35374,-2.072625 2.16105,-2.370099 0.81344,-0.133889 1.99493,-0.455699 2.62552,-0.715132 l 1.14653,-0.471696 V 74.500115 51.736078 l -0.79375,-0.51431 c -0.43656,-0.28287 -1.5875,-0.706317 -2.55764,-0.940993 -2.23459,-0.540547 -2.64583,-0.873269 -2.64583,-2.140668 0,-0.774454 0.22043,-1.107679 0.90491,-1.367915 0.97161,-0.369406 9.69966,-0.470624 10.97978,-0.127332 0.42471,0.113895 2.48846,2.287592 4.58611,4.830437 2.09766,2.542846 5.00454,6.065296 6.45975,7.827667 1.45521,1.762371 5.34458,6.50014 8.64305,10.528377 l 5.99723,7.324067 0.17639,-14.981766 c 0.097,-8.239972 0.30823,-15.113918 0.46938,-15.275437 0.4462,-0.447224 10.84456,-0.577197 11.9692,-0.149608 0.79889,0.303737 0.96697,0.581416 0.96697,1.597497 0,1.151122 -0.096,1.254582 -1.49931,1.616076 -2.97011,0.7651 -3.80348,1.119252 -4.14784,1.762703 -0.22248,0.415697 -0.35007,10.113379 -0.35007,26.606473 0,22.211104 -0.0724,25.952364 -0.50207,25.952364 -0.27614,0 -7.3802,-8.255157 -15.78681,-18.344789 z m 15.9361,-8.074468 c 0,-29.511654 -0.34077,-26.824671 3.53604,-27.882163 2.1199,-0.578252 2.29251,-0.700078 2.39177,-1.688056 0.095,-0.946144 -0.018,-1.089819 -1.01424,-1.289068 -0.61666,-0.123334 -3.23315,-0.224243 -5.81441,-0.224243 -3.79618,0 -4.79916,0.105958 -5.24757,0.554365 -0.4866,0.486598 -0.55437,2.389377 -0.55437,15.56542 0,13.283871 -0.0607,14.960669 -0.52764,14.573151 -0.2902,-0.240846 -5.48926,-6.486118 -11.55347,-13.878382 -6.06421,-7.392263 -11.75071,-14.199645 -12.63667,-15.127516 l -1.61084,-1.687038 h -5.1127 c -5.585,0 -6.4683,0.251052 -6.2512,1.776705 0.10099,0.709739 0.4229,0.921894 1.89225,1.247107 1.90306,0.421204 3.36363,1.079304 3.78029,1.703307 0.14255,0.213488 0.26161,10.56841 0.26458,23.010938 0.005,20.231051 -0.0538,22.671886 -0.55427,23.087267 -0.30782,0.255468 -1.6175,0.722377 -2.91041,1.037577 -2.33107,0.568292 -2.35075,0.583222 -2.35075,1.783566 v 1.21048 h 8.99584 8.99583 l 0.11527,-0.81316 c 0.16862,-1.189473 -0.40274,-1.666306 -2.58068,-2.153707 -1.06952,-0.239347 -2.18264,-0.673243 -2.47361,-0.964213 -0.45357,-0.453571 -0.52904,-2.664146 -0.52904,-15.496895 0,-9.45963 0.12624,-14.967858 0.34303,-14.967858 0.18866,0 6.71819,7.659688 14.51007,17.021529 14.55796,17.491194 16.12633,19.314584 16.61333,19.314584 0.15596,0 0.28357,-11.571163 0.28357,-25.713697 z"
         id="path20" /><path
         style="fill:#93b469"
         d="m 100.77391,272.85658 c -1.808801,-0.12723 -3.396301,-0.346 -3.527781,-0.48618 -0.131481,-0.14017 0.554694,-0.13738 1.524833,0.006 0.970139,0.14358 6.300778,0.24588 11.845878,0.22734 9.9787,-0.0334 10.12484,-0.0445 14.26559,-1.0903 2.30098,-0.58112 4.24512,-0.99508 4.32029,-0.9199 0.16422,0.16422 -0.11517,0.24511 -4.85537,1.40581 -3.3633,0.82355 -4.46706,0.91536 -11.99444,0.99768 -4.55966,0.0499 -9.77021,-0.0134 -11.579,-0.14064 z m -5.61892,-0.89381 c 0.339548,-0.0887 0.895173,-0.0887 1.234722,0 0.339549,0.0887 0.06174,0.16133 -0.617361,0.16133 -0.679097,0 -0.95691,-0.0726 -0.617361,-0.16133 z m -1.565451,-0.35059 c 0.254661,-0.10191 0.558932,-0.0894 0.676157,0.0279 0.117225,0.11723 -0.09113,0.20061 -0.463021,0.18529 -0.410966,-0.0169 -0.494559,-0.10052 -0.213136,-0.21314 z m -11.57552,-1.15016 c -3.589514,-0.52415 -6.87314,-1.13994 -7.296946,-1.36842 -0.423807,-0.22849 -1.138591,-0.41543 -1.588408,-0.41543 -0.449817,0 -2.484316,-0.64364 -4.521108,-1.4303 -2.036793,-0.78667 -4.511576,-1.74118 -5.49952,-2.12113 -1.832108,-0.70461 -5.593238,-3.15135 -4.844261,-3.15135 0.227028,0 0.86152,0.37454 1.409983,0.83231 1.16708,0.9741 3.059067,1.98898 3.713715,1.99209 0.25217,0.001 0.934741,0.25113 1.516824,0.55542 0.582083,0.30429 1.871602,0.76562 2.865598,1.02518 1.72557,0.4506 2.111312,0.60184 3.920587,1.53715 0.43393,0.22432 1.182606,0.40785 1.663725,0.40785 0.48112,0 1.396086,0.23051 2.033259,0.51225 1.046345,0.46266 12.227429,2.14124 16.151551,2.42478 1.047665,0.0757 0.807739,0.12115 -0.705556,0.13365 -1.26118,0.0104 -5.22993,-0.4099 -8.819443,-0.93405 z m 48.154161,-0.37274 c 0.96982,-0.41674 1.52681,-0.41674 0.88195,0 -0.29105,0.18809 -0.7673,0.33325 -1.05834,0.32258 -0.34891,-0.0128 -0.28883,-0.12267 0.17639,-0.32258 z m 2.20486,-0.58642 c 0.24254,-0.0979 0.63941,-0.0979 0.88195,0 0.24253,0.0979 0.0441,0.17794 -0.44098,0.17794 -0.48506,0 -0.6835,-0.0801 -0.44097,-0.17794 z m 3.79236,-1.01125 c 1.76765,-0.63682 2.00887,-0.63404 0.88195,0.0102 -0.48507,0.27729 -1.19945,0.50282 -1.5875,0.50118 -0.38806,-0.002 -0.0706,-0.23175 0.70555,-0.51135 z m 4.58611,-1.40898 c 0.97014,-0.24937 2.16077,-0.45237 2.64584,-0.45111 0.48507,10e-4 -0.0706,0.21721 -1.23473,0.4799 -2.6669,0.60179 -3.77626,0.57915 -1.41111,-0.0288 z m 4.69701,-1.02346 c 0.64308,-0.29757 1.79015,-0.70823 2.54905,-0.91258 0.7589,-0.20435 2.21712,-0.83146 3.24049,-1.39358 1.02337,-0.56211 3.60693,-1.90554 5.74123,-2.98539 2.13431,-1.07985 4.43618,-2.30366 5.11528,-2.71957 0.6791,-0.41591 2.34597,-1.40146 3.70416,-2.19012 4.08811,-2.37383 14.59574,-10.42661 18.02574,-13.81449 1.76797,-1.74625 4.94419,-5.20788 7.05826,-7.69253 2.11408,-2.48464 4.55815,-5.35504 5.43128,-6.37867 0.87312,-1.02363 2.38125,-2.80136 3.35139,-3.9505 1.62216,-1.92148 6.03492,-8.60328 9.06638,-13.7283 0.6886,-1.16417 2.30381,-4.28293 3.58934,-6.93058 2.10682,-4.33917 2.68909,-5.94581 2.15482,-5.94581 -0.10038,0 -1.57835,0.78687 -3.28439,1.74859 -7.56285,4.26334 -15.87195,7.08262 -24.4809,8.3064 -4.63076,0.65828 -7.03979,0.65607 -12.56408,-0.0115 -4.04492,-0.48879 -5.80819,-0.85949 -11.57118,-2.43269 -2.65851,-0.72572 -9.73943,-3.37054 -16.17943,-6.04323 -3.10445,-1.28839 -6.51757,-2.62617 -7.58472,-2.97285 -1.06716,-0.34668 -6.06778,-2.24715 -11.1125,-4.22327 -5.04472,-1.97612 -10.2041,-3.9664 -11.46528,-4.42285 -1.26118,-0.45645 -3.80118,-1.41082 -5.64444,-2.12084 -15.089537,-5.81241 -28.884505,-8.09637 -37.394445,-6.19119 -12.799508,2.86551 -21.815357,11.53057 -23.629852,22.71047 -1.03289,6.36408 -0.07924,11.84222 3.163626,18.17305 3.685082,7.19415 7.865968,11.68933 14.27661,15.34986 7.994148,4.56471 16.07258,6.35518 28.414614,6.29769 8.234417,-0.0384 9.651107,0.13844 9.808687,1.22411 0.14359,0.98927 -1.99605,2.73436 -4.51702,3.68406 -3.606137,1.35852 -12.851777,3.50997 -16.877766,3.92745 -8.591281,0.89088 -19.480498,-1.31669 -28.313459,-5.73996 -3.38472,-1.69497 -9.874947,-5.60984 -11.076827,-6.68148 -0.582083,-0.51901 -1.46905,-1.1971 -1.971037,-1.50686 -2.619428,-1.61636 -11.307569,-10.09973 -16.027501,-15.64974 -1.619104,-1.90385 -2.540332,-3.1102 -7.247445,-9.49052 C 12.996398,202.94679 4.6777684,185.85933 1.4219467,174.83925 -2.5779869,161.30055 -4.6591587,139.434 -3.3458451,124.7448 -2.1003763,110.81443 0.34386658,100.40179 5.0561768,88.951596 7.1343362,83.901988 13.140159,72.971744 14.942392,70.959266 c 0.353959,-0.395251 1.173291,-1.512388 1.820739,-2.482527 1.552977,-2.326991 6.822334,-8.389513 9.595937,-11.040357 9.631483,-9.205196 20.6545,-16.433938 32.018842,-20.997516 23.030762,-9.248462 47.92485,-11.105666 71.80832,-5.357206 6.55067,1.576667 13.89812,3.82491 17.17325,5.254835 1.02228,0.446332 2.57307,1.107087 3.4462,1.468345 2.05213,0.849075 12.11932,5.983657 13.34585,6.806804 0.51791,0.347576 3.08357,2.046351 5.70147,3.775057 2.61789,1.728706 5.85386,4.098662 7.19103,5.266569 1.33717,1.167907 3.08463,2.614705 3.88324,3.215106 5.30649,3.989464 17.91545,18.659645 21.56035,25.084884 4.68681,8.261916 6.3149,11.305652 7.60441,14.216537 0.81655,1.843265 1.61351,3.515667 1.77101,3.716451 0.27961,0.356452 1.05532,2.493372 3.90139,10.747442 2.07104,6.00637 5.14356,19.60354 5.93886,26.28195 0.5141,4.31701 1.39331,16.69917 1.40904,19.84375 0.007,1.4067 0.15799,2.55764 0.33547,2.55764 1.25925,0 0.79686,-23.333 -0.71309,-35.98334 -0.98396,-8.24364 -3.28653,-19.88086 -4.92101,-24.870837 -0.19066,-0.582083 -0.73234,-2.407708 -1.20372,-4.056945 -0.97184,-3.400204 -2.97255,-9.170871 -3.3635,-9.70139 -0.14298,-0.194027 -0.46037,-0.987777 -0.70531,-1.763889 -0.6765,-2.143548 -3.79042,-8.863674 -5.39442,-11.641668 -0.78422,-1.358194 -2.05523,-3.660069 -2.82448,-5.115278 -0.76924,-1.455208 -1.83095,-3.201459 -2.35934,-3.880556 -0.5284,-0.679097 -1.1441,-1.584584 -1.36824,-2.012192 -0.60599,-1.156097 -4.05285,-5.984458 -5.96088,-8.34998 -4.4009,-5.456117 -9.1804,-10.506778 -14.28943,-15.100121 -3.6575,-3.288325 -4.75078,-4.149128 -10.67415,-8.404377 -1.4855,-1.067153 -2.8658,-2.257778 -3.06734,-2.645834 -0.29521,-0.568408 -0.16897,-0.528011 0.64943,0.207827 0.55872,0.502361 1.57148,1.286615 2.25058,1.742787 8.20419,5.511031 18.37877,14.953235 24.78739,23.003175 3.06363,3.848251 8.797,12.184756 10.49694,15.262882 3.15449,5.711921 4.17503,7.669684 5.6088,10.759724 7.73311,16.666323 12.34363,35.673312 13.82006,56.973612 0.47858,6.90447 0.24311,27.66213 -0.38618,34.04306 -0.52044,5.27724 -1.53628,10.49786 -2.41494,12.41097 l -0.69985,1.52376 -0.0297,-1.64642 c -0.0163,-0.90553 0.35453,-4.31866 0.82418,-7.58472 1.2073,-8.3959 1.35233,-11.59125 0.92602,-20.4022 C 220.93582,121.0875 212.58597,95.891599 196.83241,74.82676 171.63773,41.137744 129.50526,23.72456 86.748442,29.329491 69.605635,31.576717 54.055735,37.465821 39.562714,47.199809 30.734348,53.129229 21.50132,62.287112 15.265796,71.298981 6.3962825,84.117614 0.4350989,99.666621 -1.910711,116.10176 c -3.0719255,21.52244 -0.7456102,46.87226 5.9513075,64.8513 6.6739215,17.91731 16.1282705,33.09269 28.5804325,45.87505 9.226777,9.47145 18.584947,15.96184 28.574406,19.81787 6.620197,2.55546 14.894767,3.92016 21.302685,3.51338 3.756208,-0.23844 11.771444,-1.9928 17.016695,-3.72458 2.878745,-0.95045 5.513715,-2.63553 5.361755,-3.42889 -0.10568,-0.55178 -0.95372,-0.62886 -8.932021,-0.81182 -4.848389,-0.11118 -9.767753,-0.38955 -10.931919,-0.61859 -1.164167,-0.22905 -3.466042,-0.66632 -5.115278,-0.97171 -6.71902,-1.24418 -13.887777,-4.60022 -18.888413,-8.84256 -4.776238,-4.05198 -9.9039,-12.39455 -11.454781,-18.63662 -0.680895,-2.74051 -0.763434,-3.80744 -0.614053,-7.93751 0.147614,-4.08124 0.322166,-5.20516 1.206736,-7.77003 2.114264,-6.13045 7.294535,-12.06565 13.265664,-15.19889 4.322702,-2.26826 9.859155,-3.92039 14.720959,-4.39288 4.725191,-0.45922 14.30874,1.14627 23.270846,3.89845 5.77645,1.77389 7.56743,2.42095 21.00276,7.58805 4.65667,1.79091 11.16542,4.27372 14.46389,5.51735 3.29847,1.24364 8.2991,3.20218 11.1125,4.35231 13.92811,5.69387 19.69307,7.29818 29.3378,8.1643 4.36562,0.39204 5.04901,0.36597 9.46775,-0.3613 9.0413,-1.48808 14.525,-3.32016 22.90683,-7.65308 3.29243,-1.702 5.21257,-2.51102 5.43404,-2.28955 0.94407,0.94407 -5.30135,13.09866 -11.52211,22.42385 -2.21021,3.3132 -4.61831,6.24031 -12.58292,15.29486 -2.62076,2.97939 -4.98929,5.7276 -5.26342,6.10712 -0.78941,1.09293 -7.23548,6.54358 -11.67242,9.86993 -5.27894,3.95759 -9.83979,6.80951 -15.22358,9.51938 -2.39557,1.20578 -5.26171,2.73914 -6.3692,3.40747 -1.70254,1.02742 -3.99531,1.86912 -7.51138,2.75751 -0.38806,0.0981 -0.17941,-0.0652 0.46367,-0.36276 z m 77.00243,-91.47124 c 0.66736,-3.5678 1.29777,-13.90893 0.68362,-11.21394 -0.17686,0.77611 -0.33401,2.36361 -0.34921,3.52778 -0.0152,1.16417 -0.34182,4.02167 -0.72581,6.35 -0.74692,4.52901 -0.82597,5.36052 -0.47638,5.01093 0.12206,-0.12206 0.51257,-1.77571 0.86778,-3.67477 z M 54.673743,261.09196 c -1.164166,-0.44167 -3.704166,-1.71649 -5.644444,-2.83292 C 33.875966,249.53985 20.677755,237.27724 9.3644022,221.40594 4.5436292,214.64297 3.6820738,213.13706 -0.12162523,204.82538 -8.2830143,186.99148 -11.730599,176.18689 -13.742134,162.13927 -15.605226,149.1283 -16.219805,131.30372 -15.207839,119.62954 -13.286117,97.460273 -6.9774911,77.753359 3.6030804,60.867903 11.420201,48.392618 22.568476,36.610725 34.212634,28.518641 c 1.552222,-1.078714 3.167827,-2.269659 3.590233,-2.646545 0.59536,-0.531202 0.750452,-0.56561 0.689903,-0.153058 -0.04296,0.292704 -1.657866,1.603264 -3.588681,2.912357 -3.89775,2.642675 -5.011317,3.50323 -8.933254,6.90355 C 22.516112,38.530189 14.781554,46.384077 12.811218,48.89759 9.0165809,53.738322 8.172119,54.850346 6.783541,56.835091 5.3984099,58.81491 3.0433231,62.637702 0.70755015,66.69768 -5.7403966,77.905327 -10.703051,92.58732 -13.368175,108.34065 c -1.47841,8.73877 -1.802764,13.33349 -1.805507,25.57639 -0.0027,12.12004 0.323907,17.10539 1.802797,27.51667 1.256381,8.84484 4.010329,20.50424 5.5753804,23.60452 0.2536414,0.50245 0.7428592,1.78667 1.0871508,2.85382 1.5536622,4.81567 8.522064,20.56405 11.3951875,25.75278 0.6983457,1.26118 2.6267129,4.17007 4.2852606,6.46419 1.6585477,2.29412 3.2743187,4.5678 3.5906027,5.05261 2.573548,3.94484 13.86366,15.89859 18.651326,19.74766 0.679097,0.54596 2.345972,1.96411 3.704166,3.15144 4.889518,4.27439 15.594186,10.95243 20.990276,13.09466 1.067153,0.42365 1.702153,0.76338 1.411111,0.75495 -0.291041,-0.008 -1.481666,-0.3767 -2.645833,-0.81838 z M 170.39482,202.35082 c -3.83621,-0.68142 -5.96198,-1.82749 -10.21958,-5.50969 -1.5407,-1.33248 -5.2637,-4.46427 -8.27335,-6.95953 -3.00965,-2.49526 -7.00114,-5.82901 -8.86998,-7.40833 -1.86885,-1.57933 -4.8734,-4.06212 -6.67679,-5.51733 -13.12849,-10.59377 -21.74919,-17.71448 -27.3536,-22.5941 -3.11446,-2.71167 -14.741921,-12.4286 -19.69443,-16.45838 -1.848404,-1.50402 -2.187239,-1.30403 -9.831695,5.80317 -3.913035,3.63802 -8.49998,7.88458 -10.193213,9.4368 -1.693233,1.55223 -7.42272,6.94973 -12.732194,11.99445 -16.544855,15.71986 -26.510238,25.08674 -28.099393,26.41178 -1.246157,1.03904 -1.653679,1.20775 -2.204861,0.91277 -1.482437,-0.79338 -0.78334,-2.06551 4.505523,-8.1986 5.572515,-6.46201 10.733586,-12.56689 13.179286,-15.58937 2.349631,-2.90376 13.197348,-15.83622 18.159813,-21.64982 3.664447,-4.29295 5.807501,-6.84294 15.203484,-18.09044 7.219488,-8.64212 9.615828,-11.24494 10.352881,-11.24494 0.53384,0 4.403694,3.0473 7.772852,6.1207 1.843264,1.68146 7.002637,6.14941 11.465277,9.92878 4.46264,3.77937 10.17764,8.62378 12.7,10.76535 5.44406,4.6222 5.95372,4.75486 6.08454,1.58379 0.19613,-4.75454 0.62837,-5.46806 3.31246,-5.46806 3.21015,0 3.12661,-0.19294 3.12661,7.22139 0,3.57006 0.14089,6.85854 0.31309,7.30773 0.29309,0.76457 2.41271,2.63868 16.26746,14.38329 3.00743,2.54938 7.37306,6.27248 9.70139,8.27355 11.48518,9.87084 14.93447,12.79929 20.54931,17.44631 3.94125,3.26192 6.08541,5.27057 6.08541,5.70081 0,0.45906 -0.40876,0.79192 -1.32292,1.07728 -1.65191,0.51565 -10.94844,0.73965 -13.30738,0.32064 z m 10.74975,-0.31539 c 0.67909,-0.17411 1.67128,-0.41438 2.20486,-0.53392 0.93802,-0.21015 1.40154,-1.39547 0.65455,-1.67381 -0.48832,-0.18196 -6.27944,-4.94457 -11.93943,-9.81898 -2.81622,-2.42535 -5.64372,-4.8066 -6.28332,-5.29167 -1.1963,-0.90726 -3.47883,-2.84408 -8.65483,-7.34396 -5.38424,-4.68093 -13.2196,-11.33283 -15.64973,-13.28599 -0.95936,-0.77106 -2.46748,-2.10502 -3.35139,-2.96435 -0.8839,-0.85934 -2.45003,-2.19903 -3.48028,-2.9771 -2.81118,-2.12308 -2.90061,-2.41939 -3.01006,-9.97363 -0.1051,-7.25349 -0.0815,-7.18447 -2.46009,-7.19402 -2.1576,-0.009 -2.70608,0.46911 -2.74174,2.38826 -0.10441,5.61935 -0.91272,6.5484 -3.80595,4.37447 -0.96106,-0.72213 -2.63529,-2.10381 -3.72052,-3.0704 -5.57092,-4.96197 -6.52471,-5.79465 -8.29706,-7.24359 -2.32228,-1.89854 -2.53282,-2.07534 -6.58704,-5.53143 -1.76831,-1.50742 -5.072651,-4.40764 -7.342994,-6.44493 -5.188146,-4.65559 -8.250582,-7.05556 -9.003092,-7.05556 -0.875464,0 -3.723191,3.03954 -9.370172,10.00131 -6.769323,8.34543 -10.323374,12.57644 -19.751984,23.51429 -2.134305,2.47595 -4.75368,5.56353 -5.820832,6.86129 -1.067153,1.29776 -2.972153,3.59045 -4.233333,5.09486 -1.261181,1.50441 -3.483681,4.22126 -4.938889,6.03744 -1.455208,1.81618 -3.439583,4.19092 -4.409722,5.27721 -0.970139,1.08629 -2.716388,3.14606 -3.880555,4.57727 -1.164167,1.4312 -3.473056,4.13187 -5.130866,6.00147 -3.802774,4.2886 -4.968654,6.78951 -2.678764,5.74616 0.66773,-0.30423 19.493203,-17.7254 27.565184,-25.50893 0.970139,-0.93547 2.980096,-2.86088 4.466572,-4.27869 1.486476,-1.41782 3.867726,-3.70308 5.291667,-5.07838 1.42394,-1.3753 3.541482,-3.34736 4.705649,-4.38236 1.164166,-1.035 4.180416,-3.81104 6.702777,-6.16897 9.936304,-9.28855 10.01142,-9.351 11.221647,-9.32987 0.745239,0.013 1.681719,0.46003 2.771442,1.32292 3.048417,2.41385 15.342115,12.52599 16.693595,13.73126 4.5169,4.02824 14.22979,12.27609 15.69161,13.32478 0.54093,0.38806 3.08971,2.45181 5.66396,4.58611 5.7754,4.78838 7.78009,6.42271 11.46716,9.34861 1.58927,1.26118 3.99616,3.24556 5.34865,4.40973 1.35248,1.16416 3.79583,3.18985 5.42966,4.50152 3.65648,2.9355 5.12046,4.16575 7.67934,6.45329 6.25689,5.59343 7.92183,6.60363 12.16194,7.37927 2.98523,0.54609 9.06671,0.66916 10.82238,0.21902 z M 79.040606,172.52102 c -0.692167,-0.69217 -0.796965,-6.11748 -0.131031,-6.78342 0.267232,-0.26723 1.607098,-0.42333 3.63361,-0.42333 2.026513,0 3.366379,0.1561 3.633611,0.42333 0.571745,0.57175 0.571745,6.3427 0,6.91445 -0.669719,0.66972 -6.441416,0.56374 -7.13619,-0.13103 z m 6.783412,-0.22175 c 0.254991,-0.25499 0.423334,-1.48951 0.423334,-3.10444 0,-1.61494 -0.168343,-2.84946 -0.423334,-3.10445 -0.260964,-0.26096 -1.541624,-0.42333 -3.338976,-0.42333 -3.469982,0 -3.646023,0.17651 -3.646023,3.65577 0,3.09488 0.343953,3.39978 3.835198,3.39978 1.650216,0 2.893576,-0.1671 3.149801,-0.42333 z m 5.715,0.51897 c -0.291042,-0.11078 -0.645798,-0.37606 -0.788348,-0.58951 -0.438278,-0.65623 -0.311412,-6.02637 0.153348,-6.49113 0.259575,-0.25957 1.528704,-0.42333 3.280833,-0.42333 1.75213,0 3.021258,0.16376 3.280833,0.42333 0.25996,0.25996 0.423333,1.53224 0.423333,3.29672 0,3.66217 -0.345965,4.05267 -3.555555,4.01321 -1.245903,-0.0153 -2.503402,-0.1185 -2.794444,-0.22929 z m 5.570196,-3.7261 0.10214,-3.1013 -2.924362,0.10269 -2.924363,0.10268 -0.10407,2.79159 c -0.07427,1.99216 0.02676,2.87686 0.352778,3.08934 0.251266,0.16376 1.568098,0.25692 2.926292,0.20702 l 2.469444,-0.0907 z m -17.846862,-7.02343 c -0.260964,-0.26096 -0.423333,-1.54162 -0.423333,-3.33897 0,-3.5123 0.146365,-3.64603 3.990556,-3.64603 3.278137,0 3.510524,0.23905 3.558206,3.66013 0.0491,3.52285 -0.180402,3.74821 -3.817236,3.74821 -1.773409,0 -3.047957,-0.1631 -3.308193,-0.42334 z m 6.41809,-0.84024 c 0.330014,-0.86 0.253645,-3.52545 -0.129914,-4.53429 -0.32402,-0.85224 -0.487577,-0.90491 -2.80981,-0.90491 -2.076776,0 -2.523375,0.10764 -2.830954,0.68236 -0.402558,0.75219 -0.503746,4.70593 -0.130004,5.07968 0.129352,0.12935 1.461742,0.23518 2.960867,0.23518 2.160032,0 2.770121,-0.1158 2.939815,-0.55802 z m 5.23572,0.85239 c -0.516402,-0.51641 -0.591682,-5.49832 -0.09495,-6.28384 0.427788,-0.67651 5.236132,-0.96321 6.330592,-0.37747 0.709915,0.37993 0.756119,0.63484 0.662004,3.65227 l -0.101176,3.24384 -3.180495,0.10034 c -2.172071,0.0685 -3.31857,-0.0377 -3.615972,-0.33514 z m 6.546024,-2.76524 c 0.130566,-2.92746 -0.231127,-3.40714 -2.800229,-3.71368 -1.739152,-0.20751 -2.086593,-0.14346 -2.734028,0.50397 -0.597588,0.59759 -0.741689,1.17578 -0.741689,2.97595 0,1.22884 0.111731,2.34599 0.248291,2.48255 0.13656,0.13656 1.525622,0.20271 3.086805,0.14699 l 2.838515,-0.1013 z m 24.819024,-41.58766 c -0.26325,-0.1668 -0.34262,-0.38584 -0.17639,-0.48674 0.16624,-0.1009 0.50695,0.038 0.75713,0.30868 0.50408,0.54537 0.16368,0.64974 -0.58074,0.17806 z m 8.18744,-4.89295 c 0.1282,-0.20743 0.0337,-0.45755 -0.21008,-0.55582 -0.26735,-0.10779 -0.19825,-0.18972 0.17419,-0.20652 0.69813,-0.0315 0.82564,0.50734 0.21008,0.88778 -0.24073,0.14878 -0.31196,0.0975 -0.17419,-0.12544 z m 22.77977,-10.93255 -0.85524,-0.97014 0.97014,0.85524 c 0.53357,0.47039 0.97014,0.90695 0.97014,0.97014 0,0.27668 -0.28568,0.0515 -1.08504,-0.85524 z m -98.221899,-0.082 c -0.822679,-0.2045 -0.587024,-0.26381 1.058333,-0.26638 1.41297,-0.002 1.882101,0.0909 1.411111,0.28002 -0.833564,0.33473 -1.073319,0.33341 -2.469444,-0.0136 z m 30.463504,-0.0956 c 0.177745,-0.17774 0.698671,-0.2641 1.157611,-0.19191 0.706149,0.11108 0.656463,0.16077 -0.323174,0.32318 -0.701046,0.11622 -1.03015,0.0645 -0.834437,-0.13127 z m 18.396215,0.0893 -0.88195,-0.28245 0.97014,-0.0352 c 0.53358,-0.0193 0.97014,0.12358 0.97014,0.31761 0,0.19403 -0.0397,0.33696 -0.0882,0.31762 -0.0485,-0.0193 -0.48507,-0.16227 -0.97014,-0.31762 z m -56.228601,-0.28894 c -0.09822,-0.15892 0.289288,-0.22028 0.861125,-0.13635 0.571836,0.0839 1.039702,0.21395 1.039702,0.28894 0,0.26881 -1.72602,0.13025 -1.900827,-0.15259 z m 16.717492,0.1503 c 0,-0.0763 0.24637,-0.23319 0.547489,-0.34874 0.313946,-0.12047 0.45555,-0.0613 0.331958,0.13865 -0.207171,0.33521 -0.879447,0.49581 -0.879447,0.21009 z m 13.31736,-0.50812 c 0.339549,-0.35571 0.679671,-0.59768 0.755827,-0.53769 0.208397,0.16415 -0.707805,1.18445 -1.063606,1.18445 -0.17027,0 -0.03177,-0.29104 0.307779,-0.64676 z m 11.663715,0.40578 c 0.254661,-0.10191 0.558932,-0.0894 0.676157,0.0279 0.117225,0.11722 -0.09113,0.2006 -0.463021,0.18528 -0.410966,-0.0169 -0.494559,-0.10052 -0.213136,-0.21313 z m 21.723004,-0.26253 c -0.30052,-0.78315 -0.01,-2.07735 0.48876,-2.176425 0.24739,-0.04915 0.28708,-0.0087 0.0882,0.08996 -0.51326,0.254543 -0.44965,2.142875 0.0794,2.356335 0.34539,0.13937 0.34299,0.18398 -0.0111,0.20579 -0.24862,0.0153 -0.53899,-0.19873 -0.64526,-0.47566 z m 17.81233,-0.63193 c 0.1624,-0.979638 0.21209,-1.029324 0.32317,-0.32318 0.0722,0.45895 -0.0142,0.97987 -0.19191,1.15762 -0.19571,0.19571 -0.24748,-0.1334 -0.13126,-0.83444 z m 22.40979,-1.069419 -0.67204,-0.79375 0.79375,0.672037 c 0.74593,0.631552 0.95435,0.915462 0.67204,0.915462 -0.0669,0 -0.42413,-0.35719 -0.79375,-0.793749 z m -72.772338,0.08819 c -0.006,-0.291042 0.207144,-1.005417 0.473675,-1.587501 0.623855,-1.362449 0.63301,-0.728732 0.01274,0.881945 -0.261519,0.679097 -0.480407,0.996597 -0.486416,0.705556 z M 47.700503,99.301042 c 0.239301,-0.241094 0.52396,-0.349486 0.632576,-0.240871 0.108615,0.108616 -0.08718,0.305875 -0.435093,0.438355 -0.502778,0.191447 -0.543299,0.150925 -0.197483,-0.197484 z m 57.773237,0.01975 c -0.57456,-0.22733 -0.49268,-0.283767 0.44097,-0.303958 1.1923,-0.02578 1.46232,0.134112 0.70556,0.417809 -0.24254,0.09092 -0.75848,0.03969 -1.14653,-0.113851 z M 84.770095,99.10383 c 0.254661,-0.101907 0.558932,-0.08937 0.676157,0.02785 0.117225,0.117225 -0.09113,0.200604 -0.463021,0.185286 -0.410965,-0.01693 -0.494558,-0.100521 -0.213136,-0.213136 z m 1.411111,-0.352778 c 0.254661,-0.101907 0.558932,-0.08937 0.676157,0.02785 0.117225,0.117225 -0.09113,0.200604 -0.463021,0.185286 -0.410965,-0.01693 -0.494558,-0.100521 -0.213136,-0.213136 z m 17.264064,0.0074 c 0.24253,-0.09786 0.63941,-0.09786 0.88194,0 0.24254,0.09786 0.0441,0.177936 -0.44097,0.177936 -0.48507,0 -0.68351,-0.08007 -0.44097,-0.177936 z m 4.14514,-0.11914 c 0.11991,-0.194028 0.28803,-0.352778 0.37359,-0.352778 0.0856,0 0.15557,0.15875 0.15557,0.352778 0,0.194028 -0.16812,0.352778 -0.3736,0.352778 -0.20547,0 -0.27548,-0.15875 -0.15556,-0.352778 z m 5.37986,0.11914 c 0.24253,-0.09786 0.63941,-0.09786 0.88194,0 0.24254,0.09786 0.0441,0.177936 -0.44097,0.177936 -0.48507,0 -0.68351,-0.08007 -0.44097,-0.177936 z m 13.4276,-0.0074 c 0.25466,-0.101907 0.55893,-0.08937 0.67616,0.02785 0.11722,0.117225 -0.0911,0.200604 -0.46302,0.185286 -0.41097,-0.01693 -0.49456,-0.100521 -0.21314,-0.213136 z M 60.0968,97.669123 c -0.43881,-0.559525 -0.426332,-0.572003 0.133193,-0.133193 0.587639,0.460858 0.774516,0.750554 0.484168,0.750554 -0.07326,0 -0.351069,-0.277812 -0.617361,-0.617361 z m 28.655412,0.01604 c 0.256873,-0.427739 0.542977,-0.701771 0.635786,-0.608962 0.09281,0.09281 -0.117359,0.442778 -0.467042,0.777707 -0.607461,0.581832 -0.614979,0.574314 -0.168744,-0.168745 z M 115.5573,98.18666 c 0.0808,-0.0549 0.46449,-0.332717 0.85255,-0.617362 0.65264,-0.478722 0.66924,-0.471236 0.22139,0.09982 -0.2663,0.339549 -0.64994,0.617361 -0.85255,0.617361 -0.20261,0 -0.30223,-0.04492 -0.22139,-0.09982 z m 33.98014,-0.693926 -0.67204,-0.79375 0.79375,0.672038 c 0.43656,0.36962 0.79375,0.726808 0.79375,0.79375 0,0.282311 -0.28391,0.07389 -0.91546,-0.672038 z M 52.932536,97.47752 c 0.132479,-0.347917 0.329738,-0.543709 0.438354,-0.435093 0.108615,0.108616 2.23e-4,0.393275 -0.240871,0.632576 -0.348409,0.345816 -0.388931,0.305295 -0.197483,-0.197483 z M 123.5242,97.345743 c -0.42662,-0.426624 -0.27587,-30.03692 0.15428,-30.302768 0.2142,-0.132385 0.80951,0.210956 1.32291,0.762981 l 0.93346,1.003681 -0.90468,-0.7838 c -0.49758,-0.43109 -1.01683,-0.7838 -1.15391,-0.7838 -0.13707,0 -0.20621,6.826299 -0.15365,15.169554 0.0526,8.343255 0.0823,15.169506 0.0662,15.169446 -0.0162,-6e-5 -0.13523,-0.105942 -0.26458,-0.235294 z m -6.41907,-23.04815 c 0,-12.320765 0.0442,-17.361078 0.0983,-11.200696 0.0541,6.160383 0.0541,16.241009 0,22.401392 -0.0541,6.160382 -0.0983,1.120069 -0.0983,-11.200696 z m 30.66842,21.078474 -0.67204,-0.79375 0.79375,0.672038 c 0.43657,0.36962 0.79375,0.726808 0.79375,0.79375 0,0.282311 -0.28391,0.07389 -0.91546,-0.672038 z m -1.76389,-2.116667 -0.67204,-0.79375 0.79375,0.672038 c 0.74593,0.631549 0.95435,0.915463 0.67204,0.915463 -0.0669,0 -0.42413,-0.357188 -0.79375,-0.793751 z m -1.93346,-2.293055 -0.85524,-0.970139 0.97014,0.855244 c 0.90674,0.799354 1.13192,1.085034 0.85524,1.085034 -0.0632,0 -0.49975,-0.436563 -0.97014,-0.970139 z m -1.59432,-1.940278 -0.67203,-0.79375 0.79375,0.672037 c 0.43656,0.36962 0.79375,0.726808 0.79375,0.79375 0,0.282312 -0.28392,0.07389 -0.91547,-0.672037 z M 140.718,86.9094 l -0.67204,-0.79375 0.79375,0.672037 c 0.74593,0.631549 0.95435,0.915463 0.67204,0.915463 -0.067,0 -0.42413,-0.357188 -0.79375,-0.79375 z M 76.195683,85.590524 c -0.123591,-0.199976 0.01801,-0.259118 0.331958,-0.138646 0.611158,0.234524 0.722978,0.487383 0.215531,0.487383 -0.182576,0 -0.428947,-0.156932 -0.547489,-0.348737 z m 62.588857,-0.97418 -0.85525,-0.970139 0.97014,0.855244 c 0.53358,0.470385 0.97014,0.906947 0.97014,0.970139 0,0.276675 -0.28568,0.0515 -1.08503,-0.855244 z M 89.491125,83.293427 c 0.0072,-0.582083 0.08625,-0.777499 0.175698,-0.434258 0.08945,0.343241 0.08356,0.819491 -0.01307,1.058333 -0.09663,0.238842 -0.169815,-0.04199 -0.162626,-0.624075 z m 47.699095,-0.617361 -0.67204,-0.79375 0.79375,0.672037 c 0.74593,0.63155 0.95435,0.915463 0.67204,0.915463 -0.0669,0 -0.42413,-0.357187 -0.79375,-0.79375 z M 89.504197,81.000371 c 0,-0.679097 0.0726,-0.956909 0.161333,-0.617361 0.08873,0.339549 0.08873,0.895174 0,1.234723 -0.08873,0.339548 -0.161333,0.06174 -0.161333,-0.617362 z m 45.752563,-0.617361 -0.85525,-0.970139 0.97014,0.855244 c 0.53358,0.470385 0.97014,0.906947 0.97014,0.970139 0,0.276675 -0.28568,0.0515 -1.08503,-0.855244 z M 89.490429,73.415648 c -0.08083,-5.670662 -0.145928,-6.27674 -0.608464,-5.665213 -0.284871,0.376633 -0.517947,0.526038 -0.517947,0.33201 0,-0.194028 0.226787,-0.660932 0.503971,-1.037566 0.816327,-1.10921 0.934127,-0.165377 0.818704,6.559552 l -0.105747,6.161218 z m 44.172011,5.027084 -0.67204,-0.79375 0.79375,0.672037 c 0.43657,0.369621 0.79375,0.726809 0.79375,0.793751 0,0.282311 -0.28391,0.07389 -0.91546,-0.672038 z m 13.76966,-1.411111 -1.03614,-1.146528 1.14269,1.032466 1.14269,1.032466 0.0959,-15.143578 0.0959,-15.143579 0.0843,15.25764 c 0.0464,8.391703 -0.0447,15.257641 -0.20248,15.257641 -0.15772,0 -0.75303,-0.515938 -1.32291,-1.146528 z m -15.53355,-0.705556 -0.67204,-0.79375 0.79375,0.672038 c 0.74593,0.631549 0.95435,0.915462 0.67204,0.915462 -0.0669,0 -0.42413,-0.357187 -0.79375,-0.79375 z m 13.58876,-1.5875 -0.85524,-0.970139 0.97014,0.855244 c 0.53357,0.470385 0.97014,0.906947 0.97014,0.970139 0,0.276675 -0.28568,0.0515 -1.08504,-0.855244 z m -15.35265,-0.529167 -0.67203,-0.79375 0.79375,0.672038 c 0.43656,0.36962 0.79375,0.726808 0.79375,0.79375 0,0.282311 -0.28392,0.07389 -0.91547,-0.672038 z m 13.75834,-1.411111 -0.67204,-0.79375 0.79375,0.672037 c 0.74593,0.63155 0.95435,0.915463 0.67204,0.915463 -0.0669,0 -0.42413,-0.357187 -0.79375,-0.79375 z m -15.33902,-0.529167 -0.85524,-0.970139 0.97014,0.855245 c 0.53357,0.470384 0.97013,0.906947 0.97013,0.970139 0,0.276674 -0.28567,0.0515 -1.08503,-0.855245 z M 60.229993,71.59451 c -0.504633,-0.203623 -0.599475,-0.824695 -0.125938,-0.824695 0.173269,0 0.406412,0.238125 0.518095,0.529166 0.111683,0.291042 0.168355,0.516634 0.125937,0.501316 -0.04242,-0.01532 -0.27556,-0.107922 -0.518094,-0.205787 z m 81.899117,-0.91289 -0.67204,-0.79375 0.79375,0.672038 c 0.74593,0.631549 0.95435,0.915462 0.67204,0.915462 -0.0669,0 -0.42413,-0.357187 -0.79375,-0.79375 z m -15.52222,-0.705555 -0.67204,-0.79375 0.79375,0.672037 c 0.43656,0.36962 0.79375,0.726808 0.79375,0.79375 0,0.282312 -0.28392,0.07389 -0.91546,-0.672037 z M 140.8829,69.09412 c -0.43881,-0.559525 -0.42633,-0.572003 0.1332,-0.133193 0.33955,0.266292 0.61736,0.544105 0.61736,0.617361 0,0.290348 -0.2897,0.103471 -0.75056,-0.484168 z m -1.92879,-2.293056 -0.67204,-0.79375 0.79375,0.672038 c 0.43656,0.36962 0.79375,0.726808 0.79375,0.79375 0,0.282311 -0.28391,0.07389 -0.91546,-0.672038 z m -1.76389,-2.116667 -0.67204,-0.79375 0.79375,0.672038 c 0.43656,0.36962 0.79375,0.726808 0.79375,0.79375 0,0.282311 -0.28391,0.07389 -0.91546,-0.672038 z m -1.41111,-1.763889 -0.67204,-0.79375 0.79375,0.672038 c 0.43656,0.36962 0.79375,0.726808 0.79375,0.79375 0,0.282311 -0.28391,0.07389 -0.91546,-0.672038 z m -1.76389,-2.116667 -0.67204,-0.79375 0.79375,0.672038 c 0.43656,0.36962 0.79375,0.726808 0.79375,0.79375 0,0.282311 -0.28391,0.07389 -0.91546,-0.672038 z m -1.58068,-1.940278 -0.85525,-0.970139 0.97014,0.855245 c 0.90674,0.799354 1.13192,1.085033 0.85525,1.085033 -0.0632,0 -0.49976,-0.436562 -0.97014,-0.970139 z m -1.59432,-1.940278 -0.67204,-0.79375 0.79375,0.672038 c 0.43656,0.36962 0.79375,0.726808 0.79375,0.79375 0,0.282311 -0.28391,0.07389 -0.91546,-0.672038 z m -1.58068,-1.940278 -0.85525,-0.970139 0.97014,0.855245 c 0.53358,0.470384 0.97014,0.906947 0.97014,0.970139 0,0.276674 -0.28568,0.0515 -1.08503,-0.855245 z m -1.59432,-1.940278 -0.67204,-0.79375 0.79375,0.672038 c 0.43656,0.36962 0.79375,0.726808 0.79375,0.79375 0,0.282311 -0.28391,0.07389 -0.91546,-0.672038 z m 27.72657,-1.220924 c 0,-0.202608 0.27781,-0.586254 0.61736,-0.852547 0.57106,-0.447857 0.57855,-0.431253 0.0998,0.221388 -0.28465,0.388056 -0.56246,0.771701 -0.61736,0.852546 -0.0549,0.08085 -0.0998,-0.01878 -0.0998,-0.221387 z m -29.49046,-0.895742 -0.67204,-0.79375 0.79375,0.672037 c 0.43657,0.36962 0.79375,0.726808 0.79375,0.79375 0,0.282312 -0.28391,0.07389 -0.91546,-0.672037 z m -12.90902,-1.211127 c 0.25467,-0.101907 0.55894,-0.08937 0.67616,0.02785 0.11723,0.117225 -0.0911,0.200604 -0.46302,0.185286 -0.41096,-0.01693 -0.49456,-0.100521 -0.21314,-0.213137 z M 47.620686,49.254409 c -0.123592,-0.199976 0.01801,-0.259118 0.331957,-0.138646 0.611159,0.234524 0.722979,0.487383 0.215532,0.487383 -0.182577,0 -0.428947,-0.156932 -0.547489,-0.348737 z m 63.556294,0.113552 c -0.33824,-0.338236 -0.28997,-1.805982 0.0666,-2.026375 0.166,-0.102593 0.22364,0.222424 0.12809,0.72226 -0.10588,0.553899 0.0173,1.029793 0.31555,1.218644 0.26909,0.170419 0.31729,0.312283 0.10709,0.315254 -0.2102,0.003 -0.48801,-0.100432 -0.61736,-0.229783 z m 12.96046,-0.558565 -0.67204,-0.79375 0.79375,0.672037 c 0.43657,0.369621 0.79375,0.726808 0.79375,0.79375 0,0.282312 -0.28391,0.07389 -0.91546,-0.672037 z m 36.19324,0.655104 c 0,-0.07626 0.24637,-0.233187 0.54749,-0.348737 0.31394,-0.120472 0.45555,-0.06133 0.33196,0.138646 -0.20718,0.33521 -0.87945,0.495811 -0.87945,0.210091 z M 52.803816,46.871294 c 1.687929,-0.06453 4.545429,-0.06483 6.35,-6.73e-4 1.80457,0.06416 0.423538,0.11695 -3.068962,0.11732 -3.4925,3.7e-4 -4.968967,-0.05212 -3.281038,-0.116647 z m 41.273288,-6.42e-4 c 2.075045,-0.06226 5.567545,-0.06248 7.761106,-4.85e-4 2.19357,0.06199 0.49581,0.112936 -3.772804,0.113202 -4.26861,2.67e-4 -6.063346,-0.05046 -3.988302,-0.112717 z m 20.496786,5.36e-4 c 1.51258,-0.06629 3.89383,-0.06588 5.29167,8.99e-4 1.39783,0.06678 0.16026,0.121018 -2.75016,0.120524 -2.91041,-4.95e-4 -4.05409,-0.05513 -2.54151,-0.121423 z m 37.74722,0 c 1.51258,-0.06629 3.89383,-0.06588 5.29167,8.99e-4 1.39783,0.06678 0.16026,0.121018 -2.75016,0.120524 -2.91041,-4.95e-4 -4.05409,-0.05513 -2.54151,-0.121423 z"
         id="path19" /><path
         style="fill:#5c93b1"
         d="m 190.04593,199.41182 c -1.26402,-0.72331 -5.73899,-4.46358 -12.99745,-10.86352 -8.92173,-7.86648 -9.66225,-8.56835 -9.66225,-9.15798 0,-0.58488 4.14406,-4.60128 6.04658,-5.86031 1.01303,-0.67039 1.54927,-0.82656 2.03928,-0.5939 0.36566,0.17361 5.45626,5.02004 11.31245,10.76984 8.63347,8.47663 10.62527,10.60648 10.52951,11.25933 -0.0722,0.49216 -0.95737,1.4484 -2.27713,2.45992 -2.62793,2.01415 -3.9932,2.55758 -4.99099,1.98662 z m 4.40927,-2.21615 c 1.5382,-1.09764 2.21159,-1.80904 2.21159,-2.33644 0,-0.49802 -1.30169,-2.03584 -3.79236,-4.48033 -2.0858,-2.04713 -6.82483,-6.6985 -10.53118,-10.33639 -4.27611,-4.19714 -7.00043,-6.61435 -7.45469,-6.61435 -0.70833,0 -5.85344,4.1985 -6.57967,5.36912 -0.30405,0.49012 -0.14085,0.85395 0.84981,1.89447 1.43417,1.50634 14.1717,12.74983 16.74837,14.78387 0.97013,0.76584 2.37446,1.92621 3.12072,2.5786 1.67071,1.46057 2.32178,1.35758 5.42741,-0.85855 z m -2.62099,-11.86126 c -13.39376,-13.08297 -14.21742,-13.94236 -14.21742,-14.83399 0,-0.59824 0.63606,-1.37967 2.1986,-2.70107 2.77307,-2.3451 3.71817,-2.73988 4.50797,-1.88299 0.32071,0.34795 3.27808,3.49013 6.57195,6.98263 10.84624,11.50032 12.47425,13.3324 12.47425,14.03787 0,1.48842 -2.81333,5.18852 -3.94503,5.18852 -0.35266,0 -3.7476,-3.03741 -7.59032,-6.79097 z m 9.1827,4.93889 c 0.47204,-0.63059 1.12757,-1.67867 1.45674,-2.32905 0.58261,-1.15115 0.57676,-1.20732 -0.22025,-2.11667 -1.25021,-1.42643 -5.67494,-6.14328 -9.81141,-10.45914 -2.04559,-2.13431 -4.87263,-5.14487 -6.2823,-6.69013 l -2.56305,-2.80958 -1.13784,0.61648 c -1.43417,0.77703 -4.48923,3.6115 -4.48923,4.16508 0,0.22902 2.23836,2.57492 4.97413,5.21311 2.73578,2.63819 7.37921,7.21133 10.31875,10.16254 3.58993,3.60419 5.59932,5.37044 6.12041,5.37986 0.47448,0.009 1.10915,-0.43129 1.63405,-1.1325 z m -2.86997,-13.73024 c -10.89419,-11.27868 -12.41626,-12.9266 -12.41626,-13.44283 0,-0.49311 2.99632,-3.07763 3.568,-3.07763 0.15246,0 3.92864,3.8863 8.3915,8.63621 6.21021,6.60966 8.16473,8.90686 8.32925,9.78959 0.279,1.49701 -0.51745,3.92896 -1.33849,4.08706 -0.43223,0.0832 -2.47562,-1.79079 -6.534,-5.9924 z m 6.9741,4.6694 c 0.55322,-1.0337 0.43782,-2.93606 -0.2374,-3.91344 -1.12969,-1.63523 -15.32637,-16.5709 -15.74113,-16.56052 -0.55344,0.0139 -2.70628,1.99357 -2.70628,2.48865 0,0.31873 6.51403,7.26711 16.09317,17.16625 1.62094,1.6751 2.05935,1.81365 2.59164,0.81906 z m -42.01001,-4.87621 c -0.5081,-0.33827 -2.88682,-2.36129 -5.28605,-4.49559 -4.76121,-4.23548 -13.24523,-11.56482 -18.09159,-15.62931 -2.87887,-2.41442 -4.44555,-4.26651 -4.44861,-5.25903 -0.003,-1.0348 1.66368,-1.81377 6.51308,-3.04372 6.06454,-1.53816 6.70119,-1.57185 7.7116,-0.40806 0.42188,0.48592 5.50381,5.44686 11.29319,11.02431 5.78937,5.57744 10.67973,10.42462 10.86746,10.7715 0.18772,0.34687 0.24555,0.93243 0.1285,1.30123 -0.24298,0.76556 -6.70686,6.35957 -7.34441,6.35603 -0.23064,-0.001 -0.83507,-0.27909 -1.34317,-0.61736 z m 4.92901,-2.72645 c 1.73098,-1.45232 3.24923,-2.90637 3.37389,-3.23123 0.16477,-0.42941 -0.62125,-1.41801 -2.87922,-3.62123 -12.64055,-12.33411 -20.2104,-19.6151 -20.49026,-19.70839 -0.41856,-0.13952 -9.96358,2.25601 -11.15856,2.80048 -1.9569,0.89162 -0.95839,2.60956 3.7967,6.53224 3.72452,3.07252 11.79737,10.04187 18.00307,15.54219 2.68476,2.37959 5.17967,4.32652 5.54426,4.32652 0.36459,0 2.07915,-1.18826 3.81012,-2.64058 z m -5.01357,-16.25967 c -6.13935,-5.93251 -11.16246,-11.01644 -11.16246,-11.29763 0,-0.6435 0.74232,-0.92233 5.58729,-2.09873 2.14891,-0.52177 4.27894,-0.85535 4.7334,-0.74129 0.78697,0.19752 16.33042,16.22139 17.63463,18.17969 0.85961,1.29072 0.78272,1.72177 -0.52685,2.95363 -1.61857,1.52254 -4.51004,3.79069 -4.83241,3.79069 -0.14913,0 -5.29425,-4.85386 -11.4336,-10.78636 z m 14.00081,8.22872 c 2.51269,-2.13766 2.69348,-2.34878 2.70077,-3.15392 0.003,-0.32795 -2.57428,-3.31071 -5.72723,-6.62835 -3.15295,-3.31763 -6.51083,-6.93551 -7.46194,-8.03973 -2.5493,-2.95966 -3.94942,-3.96755 -5.46296,-3.9326 -1.76123,0.0407 -8.2493,1.82159 -8.40697,2.30763 -0.13716,0.42281 21.273,21.29906 21.84378,21.29906 0.18565,0 1.3172,-0.83344 2.51455,-1.85209 z m 2.26082,-8.64194 c -1.79234,-1.89115 -5.40194,-5.62757 -8.02131,-8.30315 -2.61938,-2.67559 -4.90883,-5.18315 -5.08768,-5.57237 -0.4363,-0.94947 0.2346,-1.53673 2.33348,-2.04258 3.39252,-0.81762 3.31108,-0.86188 8.09375,4.39873 7.3408,8.07437 9.14417,10.15542 9.69418,11.18686 0.51414,0.96417 0.49039,1.02987 -0.861,2.38125 -0.76435,0.76435 -1.72787,1.38973 -2.14116,1.38973 -0.49244,0 -1.87467,-1.18515 -4.01026,-3.43847 z m 5.48025,2.00167 c 0.72331,-0.5962 1.3151,-1.28875 1.3151,-1.53899 0,-0.59645 -1.41125,-2.35025 -5.23323,-6.50349 -1.71939,-1.86841 -4.44164,-4.86555 -6.04944,-6.66031 -1.60781,-1.79475 -3.17976,-3.26131 -3.49322,-3.259 -0.71718,0.005 -4.08036,0.89277 -4.59988,1.21385 -0.21368,0.13206 -0.26749,0.44766 -0.11956,0.70133 0.36658,0.62867 16.42452,17.13063 16.66967,17.13063 0.10751,0 0.78726,-0.48781 1.51056,-1.08402 z m -49.27076,-13.23233 c -0.11777,-0.30691 -0.21413,-2.12695 -0.21413,-4.04454 0,-3.08596 -0.0784,-3.52846 -0.68236,-3.8517 -0.74231,-0.39727 -8.41509,-0.50362 -10.22459,-0.14171 -0.83624,0.16724 -1.24223,0.52229 -1.6136,1.41111 -0.27292,0.6532 -0.66048,1.18763 -0.86123,1.18763 -0.20076,0 -2.05588,-1.46843 -4.1225,-3.26319 -4.3403,-3.76934 -10.2905,-8.90646 -17.17471,-14.82782 -2.657664,-2.28596 -4.832119,-4.31002 -4.832119,-4.49792 0,-0.50889 2.110298,-0.42037 9.070279,0.38045 9.98478,1.14886 15.50924,2.0226 16.70804,2.64252 0.61205,0.31651 4.84999,4.25302 9.41764,8.7478 4.56765,4.49478 9.55026,9.3936 11.07248,10.88625 1.59979,1.56873 2.76767,3.00715 2.76767,3.40881 0,0.59229 -0.56363,0.82966 -3.81715,1.60761 -4.44581,1.06304 -5.20314,1.11193 -5.49372,0.3547 z m 5.40046,-0.84103 c 1.63282,-0.38125 3.10946,-0.8339 3.28144,-1.00587 0.18172,-0.18172 -2.59681,-3.17884 -6.63404,-7.15596 -3.82069,-3.76381 -8.83855,-8.72048 -11.1508,-11.01481 -2.31224,-2.29434 -4.71099,-4.38288 -5.33055,-4.6412 -1.80649,-0.75321 -23.75412,-3.60303 -24.211904,-3.14383 -0.108845,0.10918 0.278349,0.60303 0.860433,1.09744 1.744281,1.48155 10.182561,8.77436 16.035681,13.85888 8.40981,7.30548 8.48237,7.35829 8.48237,6.17245 0,-0.29104 0.3175,-0.84666 0.70556,-1.23472 0.64601,-0.64602 1.17592,-0.70556 6.27944,-0.70556 3.86488,0 5.70369,0.1298 5.99722,0.42334 0.27338,0.27337 0.42334,1.68549 0.42334,3.98639 0,3.7758 0.27471,4.51921 1.56107,4.2244 0.40259,-0.0923 2.06792,-0.47969 3.70074,-0.86095 z m 5.5737,-3.34744 c -1.10884,-0.90325 -2.01607,-1.77417 -2.01607,-1.93537 0,-0.1612 -3.77952,-3.7969 -8.39893,-8.07933 -7.94802,-7.36822 -9.68997,-9.24806 -9.1085,-9.82953 0.33162,-0.33162 16.39813,1.98269 17.42487,2.50998 1.0025,0.51483 13.92651,14.04321 14.577,15.25866 0.42445,0.79309 0.40514,0.95008 -0.16846,1.36951 -0.70576,0.51606 -5.67883,1.7535 -8.51755,2.1194 -1.72475,0.22231 -1.8348,0.1813 -3.79236,-1.41332 z m 9.25556,-0.20908 c 1.84936,-0.49901 2.83948,-0.93996 2.83948,-1.26457 0,-0.27412 -0.67469,-1.24885 -1.49931,-2.16607 -2.63612,-2.93213 -12.31935,-12.94764 -12.7684,-13.20653 -0.53081,-0.30605 -10.98336,-1.95903 -14.38969,-2.27562 l -2.47505,-0.23003 0.6048,0.92304 c 0.33264,0.50767 3.08713,3.19137 6.1211,5.96378 3.03396,2.7724 7.42504,6.91837 9.75795,9.21325 l 4.24166,4.17253 2.36399,-0.1818 c 1.30019,-0.1 3.64175,-0.52658 5.20347,-0.94798 z m 3.49358,-5.15207 c -1.984,-2.1049 -4.82337,-5.01771 -6.30971,-6.47292 -1.48634,-1.45521 -2.9822,-3.08078 -3.32413,-3.61238 -0.57955,-0.90102 -0.5814,-0.98201 -0.0272,-1.19467 0.84545,-0.32443 4.97008,0.11121 7.25014,0.76576 1.71011,0.49092 2.33555,0.96988 5.41954,4.15021 1.91749,1.97739 4.26536,4.52388 5.21749,5.65888 2.01348,2.40018 1.93015,2.73406 -0.88407,3.54198 -3.99844,1.1479 -3.35,1.39845 -7.34204,-2.83686 z m 6.7784,2.49089 c 1.05386,-0.30866 2.03957,-0.67818 2.19046,-0.82116 0.35758,-0.33882 -0.8452,-1.82485 -5.51817,-6.81766 -3.81604,-4.07723 -4.41885,-4.51492 -7.1034,-5.15757 -2.86026,-0.68472 -5.46806,-0.84089 -5.46806,-0.32746 0,0.26227 2.39091,2.93275 5.31314,5.93442 2.92222,3.00166 5.71919,5.9735 6.21548,6.60409 1.02878,1.30717 1.63071,1.38779 4.37055,0.58534 z M 155.20638,77.648982 c 3e-5,-14.164029 0.0437,-19.907018 0.0971,-12.762198 0.0534,7.14482 0.0533,18.733571 -6e-5,25.75278 -0.0534,7.019209 -0.0971,1.173447 -0.097,-12.990582 z M 50.520736,101.55965 c 0.626263,-0.0779 1.737513,-0.0792 2.469444,-0.003 0.731932,0.0764 0.219536,0.14013 -1.138659,0.14169 -1.358194,0.002 -1.957047,-0.0609 -1.330785,-0.13885 z m 9.003701,-0.005 c 0.921632,-0.0727 2.429757,-0.0727 3.351389,0 0.921632,0.0727 0.167569,0.13213 -1.675694,0.13213 -1.843264,0 -2.597327,-0.0595 -1.675695,-0.13213 z m 14.287499,0.004 c 0.63059,-0.0782 1.662465,-0.0782 2.293055,0 0.630591,0.0783 0.114653,0.14229 -1.146527,0.14229 -1.261181,0 -1.777118,-0.064 -1.146528,-0.14229 z m 13.941435,0.0107 c 0.343241,-0.0894 0.819491,-0.0836 1.058333,0.0131 0.238842,0.0966 -0.04199,0.16982 -0.624075,0.16263 -0.582083,-0.007 -0.777499,-0.0863 -0.434258,-0.1757 z m 5.656054,-0.0187 c 1.901849,-0.0636 4.918098,-0.0633 6.702775,6.2e-4 1.78468,0.0639 0.22862,0.11589 -3.457905,0.11555 -3.686527,-3.4e-4 -5.146719,-0.0526 -3.24487,-0.11617 z m 22.756075,-4.7e-4 c 2.38796,-0.0611 6.19796,-0.0609 8.46666,4.2e-4 2.2687,0.0614 0.31491,0.11137 -4.34176,0.11114 -4.65666,-2.4e-4 -6.51287,-0.0504 -4.1249,-0.11156 z m 36.35907,-0.70645 c -0.43881,-0.55952 -0.42633,-0.572 0.13319,-0.13319 0.33955,0.26629 0.61736,0.54411 0.61736,0.61736 0,0.29035 -0.28969,0.10347 -0.75055,-0.48417 z M 47.497501,100.40315 c 0,-0.485068 0.08007,-0.683506 0.177936,-0.440971 0.09786,0.242531 0.09786,0.639411 0,0.881941 -0.09786,0.24254 -0.177936,0.0441 -0.177936,-0.44097 z m 17.521275,-0.11494 c -0.131254,-0.643758 -0.08209,-0.875722 0.138801,-0.654835 0.18813,0.18813 0.279594,0.636725 0.203253,0.996885 -0.102804,0.48501 -0.191514,0.3963 -0.342054,-0.34205 z m 85.741904,-1.560753 c -0.43881,-0.559526 -0.42633,-0.572004 0.13319,-0.133194 0.58764,0.460859 0.77452,0.750555 0.48417,0.750555 -0.0733,0 -0.35107,-0.277813 -0.61736,-0.617361 z m -27.16389,-1.058334 c -0.43881,-0.559525 -0.42633,-0.572003 0.1332,-0.133193 0.58764,0.460858 0.77451,0.750554 0.48417,0.750554 -0.0733,0 -0.35107,-0.277812 -0.61737,-0.617361 z m 25.4,-1.058333 c -0.43881,-0.559526 -0.42633,-0.572003 0.1332,-0.133193 0.58763,0.460858 0.77451,0.750554 0.48416,0.750554 -0.0733,0 -0.35107,-0.277813 -0.61736,-0.617361 z M 59.595893,83.998983 c 1.09e-4,-7.179029 0.04715,-10.065834 0.104532,-6.415122 0.05738,3.650711 0.05729,9.524462 -1.99e-4,13.052779 -0.05749,3.528317 -0.104443,0.541371 -0.104333,-6.637657 z m 29.972891,6.526389 c 0,-3.589514 0.05239,-5.057952 0.116411,-3.263194 0.06403,1.794757 0.06403,4.731632 0,6.526389 -0.06403,1.794757 -0.116411,0.32632 -0.116411,-3.263195 z m -13.373101,-4.58207 c -0.123591,-0.199976 0.01801,-0.259118 0.331958,-0.138646 0.611158,0.234523 0.722978,0.487383 0.215531,0.487383 -0.182576,0 -0.428947,-0.156932 -0.547489,-0.348737 z M 139.82457,68.035787 c -0.43881,-0.559526 -0.42633,-0.572003 0.13319,-0.133193 0.58764,0.460858 0.77452,0.750554 0.48417,0.750554 -0.0733,0 -0.35107,-0.277813 -0.61736,-0.617361 z M 88.929523,66.477685 c 0.09993,-0.16169 0.331072,-0.293982 0.513648,-0.293982 0.182577,0 0.331958,0.132292 0.331958,0.293982 0,0.161689 -0.231142,0.293981 -0.513648,0.293981 -0.282507,0 -0.431888,-0.132292 -0.331958,-0.293981 z M 53.466872,53.277915 c 0.01693,-0.410966 0.100521,-0.494559 0.213136,-0.213137 0.101908,0.254662 0.08937,0.558932 -0.02785,0.676158 -0.117225,0.117225 -0.200604,-0.09114 -0.185286,-0.463021 z m -6.025073,-5.065061 c 0,-0.376604 0.135818,-0.768675 0.301817,-0.871268 0.165999,-0.102593 0.226867,0.205538 0.135263,0.684735 -0.198972,1.040857 -0.43708,1.142474 -0.43708,0.186533 z m 113.622291,0.126171 c 0.0169,-0.410966 0.10052,-0.494559 0.21313,-0.213136 0.10191,0.254661 0.0894,0.558932 -0.0279,0.676157 -0.11722,0.117225 -0.2006,-0.09113 -0.18528,-0.463021 z m -38.17285,-0.764352 c -0.43881,-0.559525 -0.42633,-0.572003 0.13319,-0.133193 0.58764,0.460858 0.77452,0.750555 0.48417,0.750555 -0.0733,0 -0.35107,-0.277813 -0.61736,-0.617362 z"
         id="path18" /><path
         style="fill:#e86e39"
         d="m 27.862634,173.00941 c -2.134305,-0.37317 -4.583106,-0.7888 -5.441779,-0.92362 -0.858673,-0.13482 -1.624888,-0.44034 -1.702701,-0.67893 -0.196534,-0.60261 1.197726,-1.16469 8.991347,-3.62476 7.307229,-2.30655 7.486627,-2.42166 7.520974,-4.82589 0.01058,-0.74036 0.226963,-2.69548 0.480859,-4.34472 0.276038,-1.79306 0.337871,-3.24001 0.153801,-3.59905 -0.169305,-0.33025 -3.322566,-2.12044 -7.007247,-3.97822 -6.552387,-3.30363 -7.700359,-4.19225 -5.90567,-4.57144 1.216786,-0.25708 10.83539,-0.90407 13.440629,-0.90407 1.272137,0 2.69205,-0.17272 3.155361,-0.38381 0.932127,-0.42471 4.835258,-6.42487 4.835258,-7.43309 0,-0.87645 -2.041113,-4.01098 -5.476905,-8.41088 -5.456826,-6.98804 -6.318981,-8.46667 -4.936744,-8.46667 0.264451,0 3.6173,1.52999 7.450775,3.39996 8.400365,4.09772 10.104511,4.74117 11.498146,4.34148 0.562206,-0.16124 2.007075,-1.06648 3.210821,-2.01164 1.861409,-1.46155 2.204614,-1.90642 2.295551,-2.97552 0.05881,-0.69138 -0.684028,-4.57049 -1.650747,-8.62025 -2.556737,-10.71063 -2.686677,-11.38769 -2.266193,-11.80818 0.371943,-0.37194 2.730932,2.11848 8.04335,8.49147 3.869949,4.64255 6.229654,7.06664 7.088873,7.28229 1.268725,0.31843 4.584947,-0.53086 5.544221,-1.41989 0.984198,-0.91212 0.928943,-0.6776 3.082714,-13.08388 0.808412,-4.656671 1.627004,-8.763005 1.819093,-9.125189 0.468321,-0.883024 1.073307,-0.224266 1.643233,1.789287 0.230951,0.81595 0.6141,1.689075 0.851443,1.940278 0.438407,0.464006 0.545035,0.899454 0.75973,3.102564 0.06618,0.6791 0.701418,3.13342 1.411643,5.45404 0.710226,2.32063 1.244308,4.6225 1.18685,5.11528 -0.09142,0.78405 -0.294093,0.90962 -1.622667,1.00536 -1.483359,0.10689 -1.608841,0.21942 -5.468055,4.90362 -2.172421,2.63681 -6.259377,7.50883 -9.082125,10.82671 -2.822747,3.31787 -7.175719,8.57249 -9.673271,11.67694 -2.497551,3.10444 -6.147331,7.47007 -8.110621,9.70139 -1.96329,2.23132 -4.592814,5.32694 -5.843387,6.87917 -1.250572,1.55222 -3.551277,4.33578 -5.112677,6.1857 -1.5614,1.84991 -3.762121,4.59014 -4.89049,6.08939 -1.128369,1.49925 -2.388999,2.96225 -2.801399,3.2511 -0.944976,0.66189 -2.587163,0.60775 -7.471994,-0.24633 z M 123.02443,117.8084 c -0.62166,-0.25084 -0.54751,-0.84054 0.17639,-1.40282 1.39008,-1.07971 6.82507,-4.05541 7.1868,-3.93484 0.53651,0.17884 -3.51759,4.86297 -4.54793,5.2547 -0.88927,0.3381 -2.09491,0.37363 -2.81526,0.083 z m -21.62819,-3.08336 c -2.16109,-0.48308 -2.801667,-0.78188 -2.801667,-1.30687 0,-0.19189 1.428747,-2.70631 3.174997,-5.58761 1.74625,-2.88129 3.175,-5.42885 3.175,-5.66124 0,-0.46902 1.34476,-2.501795 1.92328,-2.907295 0.94658,-0.663475 1.32256,-0.267989 1.16868,1.229325 -0.461,4.48569 -1.79125,12.90719 -2.15932,13.67014 -0.51021,1.05756 -1.63701,1.19928 -4.48097,0.56355 z"
         id="path17" /><path
         style="fill:#77ba4a"
         d="m 101.06402,272.5112 c -1.649239,-0.12316 -4.030489,-0.41368 -5.291669,-0.64562 -1.26118,-0.23194 -3.64243,-0.55139 -5.291666,-0.70989 -5.746113,-0.55225 -13.942834,-1.81176 -15.093218,-2.31924 -0.637173,-0.28108 -1.552139,-0.51106 -2.033259,-0.51106 -0.481119,0 -1.190108,-0.15875 -1.575531,-0.35278 -0.385423,-0.19402 -1.038437,-0.52546 -1.451143,-0.73653 -0.412705,-0.21107 -1.563643,-0.59613 -2.557638,-0.85569 -0.993996,-0.25956 -2.283515,-0.72089 -2.865598,-1.02518 -0.582083,-0.30429 -1.263095,-0.55423 -1.51336,-0.55542 -0.648715,-0.003 -3.041238,-1.26688 -3.543029,-1.8715 -0.232692,-0.28038 -1.604638,-0.94072 -3.048768,-1.46742 -5.593716,-2.04014 -16.587793,-8.77307 -21.880952,-13.4002 -1.358194,-1.1873 -3.025069,-2.60542 -3.704166,-3.15138 -4.787666,-3.84907 -16.077778,-15.80282 -18.651326,-19.74766 -0.316284,-0.48481 -1.932055,-2.75849 -3.5906027,-5.05261 -1.6585477,-2.29412 -3.5869149,-5.20301 -4.2852606,-6.46419 -2.8731235,-5.18873 -9.8415253,-20.93711 -11.3951875,-25.75278 -0.3442916,-1.06715 -0.8335094,-2.35137 -1.0871508,-2.85382 -1.5650514,-3.10028 -4.3189994,-14.75968 -5.5753804,-23.60452 -1.47889,-10.41128 -1.805513,-15.39663 -1.802797,-27.51667 0.0027,-12.2429 0.327097,-16.83762 1.805507,-25.57639 C -10.703051,92.58732 -5.7403966,77.905327 0.70755015,66.69768 3.0433231,62.637702 5.3984099,58.81491 6.783541,56.835091 c 1.388578,-1.984745 2.2330399,-3.096769 6.027677,-7.937501 1.970336,-2.513513 9.704894,-10.367401 13.159617,-13.362645 3.924115,-3.402208 5.035283,-4.260726 8.948907,-6.914163 1.939424,-1.314929 3.526225,-2.569011 3.526225,-2.786849 0,-0.29112 16.939247,-0.419689 63.928043,-0.485215 60.61173,-0.08452 63.94535,-0.05707 64.26168,0.529167 0.18351,0.340073 1.54904,1.491439 3.03454,2.558592 5.92337,4.255249 7.01665,5.116052 10.67415,8.404377 5.10903,4.593343 9.88853,9.644004 14.28943,15.100121 1.90803,2.365522 5.35489,7.193883 5.96088,8.34998 0.22414,0.427608 0.83984,1.333095 1.36824,2.012192 0.52839,0.679097 1.5901,2.425348 2.35934,3.880556 0.76925,1.455209 2.04026,3.757084 2.82448,5.115278 1.604,2.777994 4.71792,9.49812 5.39442,11.641668 0.24494,0.776112 0.56233,1.569862 0.70531,1.763889 0.39095,0.530519 2.39166,6.301186 3.3635,9.70139 0.47138,1.649237 1.01306,3.474862 1.20372,4.056945 1.0282,3.139047 2.61495,10.136157 3.50776,15.468217 1.87223,11.18136 2.44373,17.54173 2.74674,30.56929 0.21728,9.34155 -0.012,14.81667 -0.6204,14.81667 -0.17748,0 -0.32844,-1.15094 -0.33547,-2.55764 -0.0157,-3.14458 -0.89494,-15.52674 -1.40904,-19.84375 -0.7953,-6.67841 -3.86782,-20.27558 -5.93886,-26.28195 -2.84607,-8.25407 -3.62178,-10.39099 -3.90139,-10.747442 -0.1575,-0.200784 -0.95446,-1.873186 -1.77101,-3.716451 -1.28951,-2.910885 -2.9176,-5.954621 -7.60441,-14.216537 -3.6449,-6.425239 -16.25386,-21.09542 -21.56035,-25.084884 -0.79861,-0.600401 -2.54607,-2.047199 -3.88324,-3.215106 -1.33717,-1.167907 -4.57314,-3.537863 -7.19103,-5.266569 -2.6179,-1.728706 -5.18356,-3.427481 -5.70147,-3.775057 -1.22653,-0.823147 -11.29372,-5.957729 -13.34585,-6.806804 -0.87313,-0.361258 -2.42392,-1.022013 -3.4462,-1.468345 C 144.08435,34.90659 136.7369,32.658347 130.18623,31.08168 110.84036,26.425366 91.33216,26.736118 71.430686,32.017616 54.415295,36.533198 39.326921,45.042504 26.359068,57.436402 c -2.773603,2.650844 -8.04296,8.713366 -9.595937,11.040357 -0.647448,0.970139 -1.46678,2.087276 -1.820739,2.482527 -1.802233,2.012478 -7.8080558,12.942722 -9.8862152,17.99233 -4.71231022,11.450194 -7.1565531,21.862834 -8.4020219,35.793204 -1.3133136,14.6892 0.7678582,36.55575 4.7677918,50.09445 3.2558217,11.02008 11.5744513,28.10754 17.7752583,36.5125 4.707113,6.38032 5.628341,7.58667 7.247445,9.49052 4.719932,5.55001 13.408073,14.03338 16.027501,15.64974 0.501987,0.30976 1.388954,0.98785 1.971037,1.50686 0.582084,0.51901 2.804584,1.98031 4.938889,3.24735 9.590995,5.69371 15.961976,7.96423 25.279175,9.00912 4.351842,0.48805 5.804617,0.51418 9.172222,0.16497 4.025989,-0.41748 13.271629,-2.56893 16.877766,-3.92745 2.52097,-0.9497 4.66061,-2.69479 4.51702,-3.68406 -0.15758,-1.08567 -1.57427,-1.26247 -9.808687,-1.22411 -7.611768,0.0355 -11.581303,-0.39228 -17.638887,-1.90067 -8.349674,-2.07914 -16.256039,-6.99535 -20.905561,-12.99918 -2.789048,-3.60143 -6.077209,-10.12311 -6.959456,-13.80325 -1.69146,-7.05564 -0.405391,-15.18568 3.260574,-20.6121 4.632404,-6.85696 11.311938,-11.26671 20.018332,-13.21587 8.50994,-1.90518 22.304908,0.37878 37.394445,6.19119 1.84326,0.71002 4.38326,1.66439 5.64444,2.12084 1.26118,0.45645 6.42056,2.44673 11.46528,4.42285 5.04472,1.97612 10.04534,3.87659 11.1125,4.22327 1.06715,0.34668 4.48027,1.68446 7.58472,2.97285 6.44,2.67269 13.52092,5.31751 16.17943,6.04323 5.76299,1.5732 7.52626,1.9439 11.57118,2.43269 5.52429,0.66755 7.93332,0.66976 12.56408,0.0115 8.60895,-1.22378 16.91805,-4.04306 24.4809,-8.3064 1.70604,-0.96172 3.18401,-1.74859 3.28439,-1.74859 0.53427,0 -0.048,1.60664 -2.15482,5.94581 -1.28553,2.64765 -2.90074,5.76641 -3.58934,6.93058 -3.03146,5.12502 -7.44422,11.80682 -9.06638,13.7283 -0.97014,1.14914 -2.47827,2.92687 -3.35139,3.9505 -0.87313,1.02363 -3.3172,3.89403 -5.43128,6.37867 -2.11407,2.48465 -5.29029,5.94628 -7.05826,7.69253 -3.43,3.38788 -13.93763,11.44066 -18.02574,13.81449 -1.35819,0.78866 -3.02506,1.77421 -3.70416,2.19012 -0.6791,0.41591 -2.98097,1.63972 -5.11528,2.71957 -2.1343,1.07985 -4.6743,2.39447 -5.64444,2.92137 -2.13865,1.16154 -6.59152,2.6408 -9.68535,3.21751 -1.25236,0.23345 -3.07799,0.72085 -4.05695,1.08312 -1.71225,0.63362 -4.28545,1.34337 -12.77381,3.52331 -3.70956,0.95267 -4.42676,1.01754 -12.34722,1.1168 -4.62489,0.058 -9.75827,0.005 -11.4075,-0.11853 z m 69.25817,-70.69479 c -4.24011,-0.77564 -5.90505,-1.78584 -12.16194,-7.37927 -2.55888,-2.28754 -4.02286,-3.51779 -7.67934,-6.45329 -1.63383,-1.31167 -4.07718,-3.33736 -5.42966,-4.50152 -1.35249,-1.16417 -3.75938,-3.14855 -5.34865,-4.40973 -3.68707,-2.9259 -5.69176,-4.56023 -11.46716,-9.34861 -2.57425,-2.1343 -5.12303,-4.19805 -5.66396,-4.58611 -1.46182,-1.04869 -11.17471,-9.29654 -15.69161,-13.32478 -1.35148,-1.20527 -13.645178,-11.31741 -16.693595,-13.73126 -1.089723,-0.86289 -2.026203,-1.3099 -2.771442,-1.32292 -1.210227,-0.0211 -1.285343,0.0413 -11.221647,9.32987 -2.522361,2.35793 -5.538611,5.13397 -6.702777,6.16897 -1.164167,1.035 -3.281709,3.00706 -4.705649,4.38236 -1.423941,1.3753 -3.805191,3.66056 -5.291667,5.07838 -1.486476,1.41781 -3.496433,3.34322 -4.466572,4.27869 -8.071981,7.78353 -26.897454,25.2047 -27.565184,25.50893 -2.28989,1.04335 -1.12401,-1.45756 2.678764,-5.74616 1.65781,-1.8696 3.966699,-4.57027 5.130866,-6.00147 1.164167,-1.43121 2.910416,-3.49098 3.880555,-4.57727 0.970139,-1.08629 2.954514,-3.46103 4.409722,-5.27721 1.455208,-1.81618 3.677708,-4.53303 4.938889,-6.03744 1.26118,-1.50441 3.16618,-3.7971 4.233333,-5.09486 1.067152,-1.29776 3.686527,-4.38534 5.820832,-6.86129 9.42861,-10.93785 12.982661,-15.16886 19.751984,-23.51429 5.646981,-6.96177 8.494708,-10.00131 9.370172,-10.00131 0.75251,0 3.814946,2.39997 9.003092,7.05556 2.270343,2.03729 5.574684,4.93751 7.342994,6.44493 4.05422,3.45609 4.26476,3.63289 6.58704,5.53143 1.77235,1.44894 2.72614,2.28162 8.29706,7.24359 1.08523,0.96659 2.75946,2.34827 3.72052,3.0704 2.89323,2.17393 3.70154,1.24488 3.80595,-4.37447 0.0357,-1.91915 0.58414,-2.39692 2.74174,-2.38826 2.37859,0.01 2.35499,-0.0595 2.46009,7.19402 0.10945,7.55424 0.19888,7.85055 3.01006,9.97363 1.03025,0.77807 2.59638,2.11776 3.48028,2.9771 0.88391,0.85933 2.39203,2.19329 3.35139,2.96435 2.43013,1.95316 10.26549,8.60506 15.64973,13.28599 5.176,4.49988 7.45853,6.4367 8.65483,7.34396 0.6396,0.48507 3.4671,2.86632 6.28332,5.29167 5.65999,4.87441 11.45111,9.63702 11.93943,9.81898 0.74699,0.27834 0.28347,1.46366 -0.65455,1.67381 -0.53358,0.11954 -1.52577,0.35981 -2.20486,0.53392 -1.75567,0.45014 -7.83715,0.32707 -10.82238,-0.21902 z m 51.03912,-23.83154 c 5e-5,-0.27487 0.31426,-2.40477 0.69824,-4.7331 0.38399,-2.32833 0.7106,-5.18583 0.72581,-6.35 0.0152,-1.16417 0.17235,-2.75167 0.34921,-3.52778 0.61415,-2.69499 -0.0163,7.64614 -0.68362,11.21394 -0.58408,3.12264 -1.08985,4.69938 -1.08964,3.39694 z M 79.393384,172.16824 c -0.390153,-0.39015 -0.554365,-1.23301 -0.554365,-2.84542 0,-3.47926 0.176041,-3.65577 3.646023,-3.65577 1.797352,0 3.078012,0.16237 3.338976,0.42333 0.254991,0.25499 0.423334,1.48951 0.423334,3.10445 0,1.61493 -0.168343,2.84945 -0.423334,3.10444 -0.661678,0.66168 -5.74143,0.55817 -6.430634,-0.13103 z m 12.217953,-0.0911 c -0.326019,-0.21248 -0.427045,-1.09718 -0.352778,-3.08934 l 0.10407,-2.79159 2.924363,-0.10268 2.924362,-0.10269 -0.10214,3.1013 -0.102141,3.1013 -2.469444,0.0907 c -1.358194,0.0499 -2.675026,-0.0433 -2.926292,-0.20702 z M 79.77976,161.55131 c -0.373742,-0.37375 -0.272554,-4.32749 0.130004,-5.07968 0.307579,-0.57472 0.754178,-0.68236 2.830954,-0.68236 2.322233,0 2.48579,0.0527 2.80981,0.90491 0.383559,1.00884 0.459928,3.67429 0.129914,4.53429 -0.169694,0.44222 -0.779783,0.55802 -2.939815,0.55802 -1.499125,0 -2.831515,-0.10583 -2.960867,-0.23518 z m 11.654771,0.0131 c -0.13656,-0.13656 -0.248291,-1.25371 -0.248291,-2.48255 0,-1.80017 0.144101,-2.37836 0.741689,-2.97595 0.647435,-0.64743 0.994876,-0.71148 2.734028,-0.50397 2.569102,0.30654 2.930795,0.78622 2.800229,3.71368 l -0.102335,2.29448 -2.838515,0.1013 c -1.561183,0.0557 -2.950245,-0.0104 -3.086805,-0.14699 z M 53.544736,93.700373 c 0,-1.067153 0.06613,-1.503716 0.146964,-0.970139 0.08083,0.533576 0.08083,1.406701 0,1.940278 -0.08083,0.533576 -0.146964,0.09701 -0.146964,-0.970139 z M 100.07446,69.88787 c 0.007,-0.582083 0.0862,-0.777499 0.1757,-0.434258 0.0894,0.343241 0.0836,0.819491 -0.0131,1.058333 -0.0966,0.238842 -0.16981,-0.04199 -0.16262,-0.624075 z m -0.0131,-15.698613 c 0,-0.485069 0.0801,-0.683507 0.17793,-0.440972 0.0979,0.242535 0.0979,0.63941 0,0.881945 -0.0979,0.242534 -0.17793,0.0441 -0.17793,-0.440973 z"
         id="path16" /><path
         style="fill:#1572af"
         d="m 189.02779,198.05422 c -0.74626,-0.65239 -2.15059,-1.81276 -3.12072,-2.5786 -2.57667,-2.03404 -15.3142,-13.27753 -16.74837,-14.78387 -0.99066,-1.04052 -1.15386,-1.40435 -0.84981,-1.89447 0.72623,-1.17062 5.87134,-5.36912 6.57967,-5.36912 0.45426,0 3.17858,2.41721 7.45469,6.61435 3.70635,3.63789 8.44538,8.28926 10.53118,10.33639 2.49067,2.44449 3.79236,3.98231 3.79236,4.48033 0,0.5274 -0.67339,1.2388 -2.21159,2.33644 -3.10563,2.21613 -3.7567,2.31912 -5.42741,0.85855 z m 4.23466,-12.02828 c -2.93954,-2.95121 -7.58297,-7.52435 -10.31875,-10.16254 -2.73577,-2.63819 -4.97413,-4.98409 -4.97413,-5.21311 0,-0.55358 3.05506,-3.38805 4.48923,-4.16508 l 1.13784,-0.61648 2.56305,2.80958 c 1.40967,1.54526 4.23671,4.55582 6.2823,6.69013 4.13647,4.31586 8.5612,9.03271 9.81141,10.45914 0.79701,0.90935 0.80286,0.96552 0.22025,2.11667 -1.07997,2.13386 -2.27857,3.47624 -3.09079,3.46155 -0.52109,-0.009 -2.53048,-1.77567 -6.12041,-5.37986 z m 9.26695,-5.63254 c -9.57914,-9.89914 -16.09317,-16.84752 -16.09317,-17.16625 0,-0.49508 2.15284,-2.4748 2.70628,-2.48865 0.41476,-0.0104 14.61144,14.92529 15.74113,16.56052 0.97631,1.41319 0.61996,4.59581 -0.51457,4.59581 -0.21273,0 -1.04059,-0.67564 -1.83967,-1.50143 z m -43.84374,-8.46954 c -6.2057,-5.50032 -14.27855,-12.46967 -18.00307,-15.54219 -4.75509,-3.92268 -5.7536,-5.64062 -3.7967,-6.53224 1.19498,-0.54447 10.74,-2.94 11.15856,-2.80048 0.27986,0.0933 7.84971,7.37428 20.49026,19.70839 2.25797,2.20322 3.04399,3.19182 2.87922,3.62123 -0.34502,0.8991 -6.42899,5.87181 -7.18401,5.87181 -0.36459,0 -2.8595,-1.94693 -5.54426,-4.32652 z m 4.67205,-14.94406 c -5.94961,-5.74813 -10.75955,-10.62969 -10.68876,-10.84792 0.15767,-0.48604 6.64574,-2.26695 8.40697,-2.30763 1.51354,-0.035 2.91366,0.97294 5.46296,3.9326 0.95111,1.10422 4.30899,4.7221 7.46194,8.03973 5.36668,5.647 6.11662,6.68727 5.46265,7.57741 -0.50357,0.68542 -4.61788,4.05695 -4.95074,4.05695 -0.18564,0 -5.2054,-4.70302 -11.15502,-10.45114 z m 11.60199,-5.2919 c -4.45645,-4.58408 -8.22366,-8.54225 -8.37158,-8.79593 -0.14793,-0.25367 -0.0941,-0.56927 0.11956,-0.70133 0.51952,-0.32108 3.8827,-1.20858 4.59988,-1.21385 0.31346,-0.002 1.88541,1.46425 3.49322,3.259 1.6078,1.79476 4.33005,4.7919 6.04944,6.66031 3.82198,4.15324 5.23323,5.90704 5.23323,6.50349 0,0.41784 -2.37554,2.62301 -2.82566,2.62301 -0.1075,0 -3.84164,-3.75061 -8.29809,-8.3347 z m -38.90891,-6.20853 c -0.26283,-0.26282 -0.41455,-1.71865 -0.41455,-3.9776 0,-2.3009 -0.14996,-3.71302 -0.42334,-3.98639 -0.29353,-0.29354 -2.13234,-0.42334 -5.99722,-0.42334 -5.10352,0 -5.63343,0.0595 -6.27944,0.70556 -0.38806,0.38806 -0.70556,0.94368 -0.70556,1.23472 0,1.18584 -0.0726,1.13303 -8.48237,-6.17245 -5.85312,-5.08452 -14.2914,-12.37733 -16.035681,-13.85888 -0.582084,-0.49441 -0.969278,-0.98826 -0.860433,-1.09744 0.457784,-0.4592 22.405414,2.39062 24.211904,3.14383 0.61956,0.25832 3.01831,2.34686 5.33055,4.6412 2.31225,2.29433 7.33011,7.251 11.1508,11.01481 4.03723,3.97712 6.81576,6.97424 6.63404,7.15596 -0.26304,0.26303 -1.9366,0.71049 -6.98218,1.86682 -0.40258,0.0923 -0.91852,-0.0188 -1.14652,-0.2468 z m 7.8674,-7.21342 c -2.33291,-2.29488 -6.72399,-6.44085 -9.75795,-9.21325 -3.03397,-2.77241 -5.78846,-5.45611 -6.1211,-5.96378 l -0.6048,-0.92304 2.47505,0.23003 c 3.40633,0.31659 13.85888,1.96957 14.38969,2.27562 0.44905,0.25889 10.13228,10.2744 12.7684,13.20653 0.82462,0.91722 1.49931,1.89195 1.49931,2.16607 0,0.6393 -4.81722,1.96448 -8.04295,2.21255 l -2.36399,0.1818 z m 17.71055,-0.20377 c -0.49629,-0.63059 -3.29326,-3.60243 -6.21548,-6.60409 -2.92223,-3.00167 -5.31314,-5.67215 -5.31314,-5.93442 0,-0.51343 2.6078,-0.35726 5.46806,0.32746 2.68455,0.64265 3.28736,1.08034 7.1034,5.15757 4.67297,4.99281 5.87575,6.47884 5.51817,6.81766 -0.3925,0.37191 -3.96149,1.38235 -4.88262,1.38235 -0.45525,0 -1.14904,-0.47393 -1.67839,-1.14653 z"
         id="path15" /><path
         style="fill:#262425"
         d="m 139.72275,85.226412 c -8.32693,-9.988421 -15.30435,-18.269352 -15.50538,-18.40207 -0.20102,-0.132719 -0.49214,-0.163037 -0.64693,-0.06737 -0.15478,0.09566 -0.28142,7.05075 -0.28142,15.455751 0,13.303821 0.07,15.33995 0.54114,15.73093 0.29763,0.247012 1.52794,0.719233 2.73403,1.049381 1.91208,0.523403 2.19288,0.708589 2.19288,1.446176 v 0.8459 l -8.75528,0.0944 -8.75528,0.0944 0.11222,-0.94915 c 0.0781,-0.660278 0.38066,-1.025324 0.99418,-1.199415 0.48506,-0.137642 1.54954,-0.431945 2.36549,-0.654006 2.77675,-0.755695 2.57339,1.153077 2.57339,-24.155144 0,-18.272223 -0.0907,-22.785532 -0.46807,-23.301675 -0.25744,-0.352071 -1.56713,-0.996242 -2.91042,-1.43149 -2.11675,-0.685863 -2.44234,-0.903449 -2.44234,-1.632158 V 47.31009 l 5.42057,-0.0976 c 3.76102,-0.06772 5.57334,0.02918 5.91955,0.31651 0.27444,0.227762 3.38142,3.922933 6.90441,8.211492 3.52298,4.288559 7.85304,9.54363 9.62234,11.677935 1.76931,2.134306 4.4621,5.388682 5.98398,7.231946 1.52188,1.843264 2.98146,3.47834 3.24352,3.633502 0.39711,0.235131 0.47646,-2.269236 0.47646,-15.038056 0,-12.620039 0.0861,-15.391616 0.48846,-15.72555 0.33316,-0.276505 2.21173,-0.374352 5.90902,-0.307779 l 5.42058,0.0976 0.10582,0.910055 c 0.0976,0.839365 -0.0473,0.944319 -1.86524,1.351163 -1.0841,0.24261 -2.40172,0.81148 -2.92806,1.264156 l -0.95697,0.823047 -0.17639,25.864332 -0.17639,25.864337 z M 47.794577,100.44905 c 0,-0.954749 0.119313,-1.035909 2.094001,-1.424405 1.151701,-0.226584 2.440066,-0.692196 2.863034,-1.034695 l 0.769032,-0.622724 -0.03541,-22.911901 -0.03541,-22.911901 -0.874182,-0.765504 c -0.4808,-0.421027 -1.761167,-0.964002 -2.84526,-1.206612 -1.817971,-0.406844 -1.962857,-0.511798 -1.865249,-1.351163 l 0.105829,-0.910055 h 7.403579 7.403579 l 0.433267,0.90398 c 0.238296,0.49719 3.20918,9.13331 6.601963,19.191379 3.392783,10.058069 6.341875,18.460577 6.553537,18.672239 0.663286,0.663286 -0.03267,2.619247 9.588979,-26.949541 1.546843,-4.753681 2.980289,-9.198682 3.185436,-9.877779 0.658098,-2.178495 0.402577,-2.116667 8.747711,-2.116667 6.076777,0 7.758437,0.100867 8.076787,0.484453 0.7292,0.878642 0.0439,1.580785 -1.94615,1.993914 -1.05715,0.219464 -2.32936,0.749338 -2.82712,1.177498 l -0.90503,0.778472 0.0356,22.918251 c 0.0408,26.235261 -0.31376,23.741192 3.48594,24.522204 2.60164,0.534754 2.64247,0.567649 1.97296,1.589447 l -0.56582,0.86354 h -9.824792 c -9.497234,0 -9.837511,-0.0238 -10.206295,-0.71284 -0.515745,-0.96368 -0.223892,-1.315289 1.47046,-1.771531 0.790223,-0.212784 1.815395,-0.765508 2.27816,-1.228273 l 0.841392,-0.841392 V 81.516175 c 0,-12.153025 -0.09278,-15.361604 -0.440972,-15.250276 -0.527011,0.168502 -0.87761,1.179519 -4.681425,13.49975 C 83.035292,85.0044 80.86193,91.9894 79.82304,95.287873 l -1.888892,5.997227 h -2.783191 -2.783191 l -5.75246,-14.947581 c -3.163852,-8.221167 -5.94037,-15.173995 -6.170038,-15.450728 -0.337345,-0.406476 -0.473361,-0.415214 -0.7079,-0.04548 -0.159677,0.251719 -0.292752,6.293287 -0.295723,13.425708 -0.0062,14.862961 -0.268186,13.73715 3.433187,14.752657 1.767047,0.484806 2.0439,0.678673 2.141093,1.499304 l 0.111626,0.9425 h -8.666487 -8.666487 z"
         id="path14" /></g></g></svg>
